<svg xmlns="http://www.w3.org/2000/svg" width="700.444" height="391.047" viewBox="0 0 700.444 391.047"><g transform="translate(-1786.778 -771.223)"><g transform="translate(1758.768 618)"><path d="M637.57,211.34l18.18-51.97c3.74-5.99,12.31-7.96,18.79-4.31l10.14,5.71a12.812,12.812,0,0,1,6.84,11.92L674.79,389.52c-.39,5.9-6.21,10.44-12.73,9.67-4.33-.51-9.07-3.35-12.94-11.31a9.385,9.385,0,0,1-.82-2.67L624.32,226.34l13.24-15Z" fill="#ffd140"/><path d="M665.44,211.52h0c-3.62-5.69-11.09-8.44-18.12-6.66l-6.77,1.71-2.98,4.76-13.24,15,2.54,16.84,30.8-11.36c8.88-3.27,12.52-12.81,7.76-20.29Z" fill="#ff9d3b"/><path d="M374.48,326.25l35.76-48.86a94.166,94.166,0,0,1,32.7-27.75h0a103.9,103.9,0,0,1,22.44-8.52l176.54-44.71c7.02-1.78,14.49.97,18.12,6.66h0c4.76,7.48,1.11,17.02-7.76,20.29L515.13,273.95c-30.29,11.17-55.62,31.05-72.01,56.51l-45.3,70.36L374.5,326.23Z" fill="#ffd140"/><path d="M431.18,302.32,385.09,360.2l12.71,40.65,45.3-70.36c16.4-25.47,41.72-45.34,72.01-56.51l137.15-50.59c7.15-2.64,10.9-9.34,9.61-15.76L499.05,257.12c-27.34,8.31-51.08,24.12-67.87,45.21Z" fill="#ff9d3b"/><path d="M377.83,291.2H329.29c8.82,9.67,18.28,55.45,22.36,79.51.94,5.54,1.89,30.83,2.36,44.72a9.39,9.39,0,0,0,9.26,9.2h36.69a9.406,9.406,0,0,0,9.27-9.67c-.2-13.8-.92-39.02-3.45-53.02-8.82-48.67-27.95-70.74-27.95-70.74Z" fill="#a9cad1"/><path d="M460.07,244.17a4.57,4.57,0,0,0-2.56,6.33,5.38,5.38,0,0,0,4.81,2.75,5.709,5.709,0,0,0,2.24-.45l113.73-47.72-6-7.99L460.08,244.17Z" fill="#ffd140"/><path d="M669.72,161.45a5.583,5.583,0,0,0-7.05-2.3l-90.4,37.93,6,7.99,88.88-37.3a4.57,4.57,0,0,0,2.56-6.33Z" fill="#a399ff"/><path d="M374.14,356.35s.27-2.15,3.52-3.62,4.1-.02,6.02.81,1.67-.55,1.93.83-2.78,1.26-3.71,1.07-1.43,1.14-3.56,2.43-4.2-1.52-4.2-1.52Z" fill="#ad263d"/><path d="M315.89,326.2s17.29,20.98,26.7,24.3c8.69,3.07,32.34.33,38.34,6.12s-26.1,14.1-43,8.73-31.25-20.43-31.25-20.43l9.21-18.73Z" fill="#ad263d"/><path d="M359.09,365.77l23.56-11.34a1.562,1.562,0,0,1,2.31,1.64l-3.42,11.72a2.644,2.644,0,0,0,.39,2.29l15.24,21.99,3.3,29-17.24,2.47-8.72-50.56a3.09,3.09,0,0,0-2.62-2.43l-12.33-2.09a1.4,1.4,0,0,1-.46-2.69Z" fill="#311e69"/><path d="M463.96,544.27H180.79c-22.83,0-41.4-16.68-41.4-37.19v-3.9c0-20.48,18.52-37.14,41.31-37.19l139.15-10.61h5.13l139.07,10.61c22.79.04,41.31,16.71,41.31,37.19v3.9C505.36,527.58,486.79,544.27,463.96,544.27Z" fill="#7966e3"/><path d="M431.04,544.27H147.86c-22.83,0-41.4-16.68-41.4-37.19v-3.9c0-20.48,18.52-37.14,41.31-37.19l139.15-10.61h5.13l139.07,10.61c22.79.04,41.31,16.71,41.31,37.19v3.9c0,20.5-18.57,37.19-41.4,37.19ZM147.87,469.63c-20.6,0-37.36,15.05-37.36,33.56v3.9c0,18.5,16.76,33.56,37.36,33.56H431.04c20.6,0,37.36-15.05,37.36-33.56v-3.9c0-18.5-16.76-33.56-37.36-33.56h-.17L291.81,459.02h-4.7L147.96,469.63h-.09Z" fill="#614cd4"/><path d="M147.86,469.63c-20.6,0-37.36,15.05-37.36,33.56v3.9c0,18.5,16.76,33.56,37.36,33.56H431.04c20.6,0,37.36-15.05,37.36-33.56v-3.9c0-18.5-16.76-33.56-37.36-33.56h-.17L291.81,459.02h-4.7L147.96,469.63h-.09Z" fill="#311e69"/><ellipse cx="28.32" cy="25.44" rx="28.32" ry="25.44" transform="translate(133.64 478.77)" fill="#41288c"/><ellipse cx="28.32" cy="25.44" rx="28.32" ry="25.44" transform="translate(121.76 478.77)" fill="#614cd4"/><rect width="209.23" height="22.67" transform="translate(181.93 494.19)" fill="#41288c"/><path d="M350.44,486.03h82.83a11.9,11.9,0,0,1,11.9,11.9v19.81a11.9,11.9,0,0,1-11.9,11.9H350.44V486.02h0Z" fill="#41288c"/><path d="M178.33,365.79H105.14V351.81c0-13.13,11.89-23.81,26.5-23.81h46.69Zm-64.61-7.71h56.03V335.71H131.64c-9.88,0-17.92,7.22-17.92,16.1Z" fill="#614cd4"/><path d="M199.11,365.79h-73.2V351.81c0-13.13,11.89-23.81,26.5-23.81H199.1v37.79Zm-64.61-7.71h56.03V335.71H152.42c-9.88,0-17.92,7.22-17.92,16.1Z" fill="#614cd4"/><path d="M115.53,343.65H238.16V447.49H85.99a13.576,13.576,0,0,1-13.57-13.57V386.76a43.117,43.117,0,0,1,43.1-43.1Z" fill="#ffd140"/><rect width="190.04" height="40.84" transform="translate(147.34 436.05)" fill="#41288c"/><path d="M168.06,350.71c-3.48,19.84-36.88,53.17-46.3,54.53s-11.9-7.05-30.62,6.34c-8.26,5.9-13.94,7.33-18.72,8.13v15.43c0,6.82,6.15,12.35,13.75,12.35H238.15V343.65h-68A31.066,31.066,0,0,0,168.06,350.71Z" fill="#ff9d3b"/><path d="M188.49,447.49H334.14c7.73,0,13.91-10.29,14.22-22.87h-173c1.27,13.25,6.74,22.87,13.14,22.87Z" fill="#614cd4"/><path d="M292.72,291.2H245.26c-4.02,0-7.25,3-7.1,6.61l3.47,85.48c.18,4.41,3.44,8.24,8.13,9.55l66,18.44c4.66,1.3,9.39-1.81,9.41-6.19.14-21.44-1.21-76.84-17.7-105.8a16.868,16.868,0,0,0-14.75-8.09Z" fill="#a9cad1"/><path d="M263.94,349.54s-11.03-.46-12.29,8.54,15.1,34.31,17.16,37.49,6.78,4.49,6.78,4.49l12.53,3.5,27.63,7.72c4.66,1.3,9.39-1.81,9.41-6.19.03-5.02-.02-11.89-.32-19.85s-60.9-35.69-60.9-35.69Z" fill="#614cd4"/><path d="M215.18,296.33h-6.06c-6.78,0-12.28,4.94-12.28,11.03v54.21c0,6.01,4.22,11.36,10.53,13.36l10.36,3.27c4.75,1.5,9.73-1.67,9.73-6.19V307.36C227.46,301.27,221.96,296.33,215.18,296.33Z" fill="#a9cad1"/><path d="M243.28,324.42V304.91c0-4.74,4.28-8.58,9.55-8.58h32.85c3.71,0,5.18,4.29,2.12,6.18-4.27,2.63-9.58,5.19-14.57,5.61-10.77.91-5.47,5.44-18.17,7.39-5.74.88-6.81,5.4-7.77,9.3-.52,2.13-4.02,1.79-4.02-.4Z" fill="#c5dbe0"/><path d="M274.62,386.19s10.62,10.82,21.34,11.5,34.7-4.53,34.7-4.53,9.08,34.24,22.71,34.46,14.64-17.23,13.38-29.02-13.63-24.65-33.82-26.38-32.94-2.45-32.94-2.45l-25.36,16.42Z" fill="#311e69"/><path d="M200.62,331.86V306.44a6.306,6.306,0,0,1,3.42-5.47l.62-.34a13.7,13.7,0,0,1,6.55-1.65h7.07s-3.53,5.31-7.32,7.53-4.8-1.27-6.06,4.78-.5,18.52-4.29,20.56Z" fill="#c5dbe0"/><path d="M340.73,349.68c-9.66-5.05-24.84-23.48-24.84-23.48l-9.21,18.73s10.43,10.94,23.97,17.5c3-2.26,8.82-7.25,10.07-12.75Z" fill="#614cd4"/><path d="M273.37,387.37c-11.37-29.64-5.28-56.14-1.32-60.37,10.44-11.16,40.25-8.36,46.12,1.75,5.82,10.02-19.65,22.77-.09,40.1,1.9,1.68-4.49,5.17-6.71,6.5-.8.48-9.11-5.64-9.97-5.2-1.95.98.79,13.78-1.33,14.52-9.21,3.25-25.75,5.15-26.68,2.71Z" fill="#ff9d3b"/><path d="M300.32,310.96s2.6-2.9.94-4.62c-4.81-4.99-9.69.93-9.69.93a4.559,4.559,0,0,0-2.75,2.12c-1.48,2.47,1.8,6.65,1.8,6.65s9.23-1.87,9.7-5.06Z" fill="#311e69"/><path d="M301.26,306.34c-.19-.19-.37-.36-.56-.52-.14.05-.29.1-.47.15a18.793,18.793,0,0,1-4.85.83,28.4,28.4,0,0,0-4.05,1.88c-.26.24-2.58,3.43-2.46,4.29a13.707,13.707,0,0,0,1.74,3.07s9.23-1.87,9.7-5.06c0,0,2.6-2.9.94-4.62Z" fill="#1e1240"/><path d="M291.58,313.02l-2.96,9.22c.05,1.28,7.89,4.51,10.06,2.8.63-.5.39-1.72-.3-3.02l-4.05-7.08-2.74-1.92Z" fill="#ff6161"/><path d="M295.14,316.36c-1.58-.18-3.74-.46-3.74-.46a5.938,5.938,0,0,0,2.52,3.84,6.963,6.963,0,0,0,3.86,1.25l-2.65-4.62Z" fill="#311e69"/><path d="M293.46,309.94l-1.95,5.03a3.222,3.222,0,0,0,2.49,3.95,11.087,11.087,0,0,0,4.42.23c1.61-.15,2.47-1.52,2.51-3.42a16.092,16.092,0,0,0-1.15-5.94C298.71,307.05,295,306.74,293.46,309.94Z" fill="#ff6161"/><path d="M296.77,313.68a10.714,10.714,0,0,0,3.21.14s.03,1.1-.72,1.47-2.07-.29-2.49-1.61Z" fill="#fff"/><path d="M298.96,317.27c-1.8-.35-3.22,2.08-6.37-.3a3.962,3.962,0,0,1-1.03-2.11l-.04.11a3.222,3.222,0,0,0,2.49,3.95,11.087,11.087,0,0,0,4.42.23,2.485,2.485,0,0,0,2.09-1.48,9.4,9.4,0,0,1-1.55-.39Z" fill="#ad263d"/><path d="M293.57,311.99a4.016,4.016,0,0,1-.08-.98c.01-.63-.13-1.56-1.18-1.12-1.52.64-1.6,3.69.12,3.97,1.28.21,1.32-1.05,1.14-1.87Z" fill="#ff6161"/><path d="M283.81,331.43c1.91,6.94-7.48,21.87-3.61,29.78,1.92,3.92,34.96,24.44,35.73,30.67s-46.79,1.18-53.74-29.76c-6.79-30.2,11.31-36.29,15.09-36.01s5.59,1.88,6.54,5.32Z" fill="#ff6161"/><path d="M280.13,350.24l-16.56,1.47s8.78,6.65,15.94,7.41a21.361,21.361,0,0,1,.61-8.88Z" fill="#311e69"/><path d="M313.26,331.56l-4.27,15.62a102.4,102.4,0,0,0,9.68,7.97c1.55-6.29-5.41-23.6-5.41-23.6Z" fill="#311e69"/><path d="M262.31,345.33s1.83,9.1,2.16,11.51,4.96,9.67,12.15,14.46,4.16,7.89,8.29,12.8,8.52,4.54,12.08,5.31,11.46,4.76,11.53,4.79c-13.5-.37-41.15-9.05-46.33-32.08a52.227,52.227,0,0,1-1.38-15.65Z" fill="#ad263d"/><path d="M277.27,326.11c3.77.28,5.59,1.88,6.54,5.32,1.33,4.84-2.83,13.58-4.16,21.1-4.11.71-13.22,1.56-18.97-3.42.28-19.01,13.43-23.23,16.59-22.99Z" fill="#614cd4"/><path d="M279.65,352.52c1.33-7.52,5.49-16.26,4.16-21.1-.94-3.44-2.76-5.04-6.54-5.32a12.717,12.717,0,0,0-6.59,2.18c1.73,2.12,4.49,5.99,3.34,8-1.63,2.86-4.73-.15-4.29,7.22a89.315,89.315,0,0,0,.97,9.43,34.549,34.549,0,0,0,8.95-.41Z" fill="#311e69"/><path d="M278.6,353.94s2.92.71,2.76-.86.18-2.42-.87-2.56-13.23,1.46-16.54-.98-3.38-2.68-3.92-1.79-.35,3.28.69,3.79S274.15,354.91,278.6,353.94Z" fill="#a399ff"/><path d="M335.87,364.65c2.21-3.92,3.84-12.59,3.84-12.59l-9.06,10.37c1.7.82,3.44,1.57,5.22,2.23Z" fill="#311e69"/><path d="M318.16,328.75c-2.57-4.42-9.71-7.44-17.81-8.51a11.126,11.126,0,0,1,2.89,7.82c.01,7.1-1.35,9.71-2.87,17.42s-4.64,9.07.2,17.31a67.12,67.12,0,0,0,9.32,12.05c.75.4,1.3.62,1.47.51,2.22-1.33,8.61-4.82,6.71-6.5-19.56-17.32,5.91-30.07.09-40.1Z" fill="#f46822"/><path d="M328.94,361.94s10.43-10.79,10.25-13.15a5.608,5.608,0,0,1,3.4,1.71s-8.42,11.25-10.91,12.41-2.75-.98-2.75-.98Z" fill="#ff9791"/><path d="M311.65,388.06s6.65-2.44,7.31-1.76,2.04,2.8,3.62,3.19,3.36-.07,2.44,1.78a11.214,11.214,0,0,1-5.66,4.82,7.07,7.07,0,0,1-5.07-.89c-2.96-1.82-2.63-7.14-2.63-7.14Z" fill="#ff6161"/><rect width="61.77" height="8.77" transform="translate(349 372.21)" fill="#614cd4"/><path d="M415.3,423.26l-2.5-44.62c-1.76-31.38-9.45-59.87-21.3-78.89h0c-9.45-15.17-20.95-23.37-32.78-23.37h-66.8c11.81,0,23.3,8.2,32.73,23.37h0c11.83,19.02,19.51,47.51,21.27,78.89l2.39,42.71c.06,1.1.07,2.19.05,3.26H241.99c1.27,13.25,6.75,22.87,13.16,22.87H403.97C410.75,447.48,416.03,436.19,415.3,423.26Zm-15.34,1.35H363.27a9.384,9.384,0,0,1-9.26-9.2c-.46-13.89-1.42-39.18-2.36-44.72-4.08-24.06-13.53-69.83-22.36-79.51h48.54s19.12,22.07,27.95,70.74c2.54,13.99,3.25,39.21,3.45,53.02a9.406,9.406,0,0,1-9.27,9.67Z" fill="#614cd4"/><path d="M352.46,319.16c7.94-2.04,5.96-3.17,11.25-5.89s6.4.91,18.53,7.26c4.47,2.34,8.49,1.6,11.52-.66-8-19.51-15.93-28.66-15.93-28.66H329.29c4.11,4.51,8.37,16.87,12.15,31.22,3.26-.3,6.17-2.01,11.02-3.26Z" fill="#c5dbe0"/><rect width="79.25" height="22.87" transform="translate(114.05 424.62)" fill="#614cd4"/><path d="M385.51,544.27H102.34c-22.83,0-41.4-16.68-41.4-37.19v-3.9c0-20.48,18.52-37.14,41.31-37.19L241.4,455.38h5.13L385.6,465.99c22.79.04,41.31,16.71,41.31,37.19v3.9C426.91,527.58,408.34,544.27,385.51,544.27Z" fill="#7966e3"/><path d="M352.58,544.27H69.41c-22.83,0-41.4-16.68-41.4-37.19v-3.9c0-20.48,18.52-37.14,41.31-37.19l139.15-10.61h5.13l139.07,10.61c22.79.04,41.31,16.71,41.31,37.19v3.9c0,20.5-18.57,37.19-41.4,37.19ZM69.41,469.63c-20.6,0-37.36,15.05-37.36,33.56v3.9c0,18.5,16.76,33.56,37.36,33.56H352.58c20.6,0,37.36-15.05,37.36-33.56v-3.9c0-18.5-16.76-33.56-37.36-33.56h-.17L213.35,459.02h-4.7L69.5,469.63Z" fill="#614cd4"/><path d="M69.41,469.63c-20.6,0-37.36,15.05-37.36,33.56v3.9c0,18.5,16.76,33.56,37.36,33.56H352.58c20.6,0,37.36-15.05,37.36-33.56v-3.9c0-18.5-16.76-33.56-37.36-33.56h-.17L213.35,459.02h-4.7L69.5,469.63Z" fill="#311e69"/><ellipse cx="28.32" cy="25.44" rx="28.32" ry="25.44" transform="translate(55.18 478.77)" fill="#41288c"/><ellipse cx="28.32" cy="25.44" rx="28.32" ry="25.44" transform="translate(43.3 478.77)" fill="#614cd4"/><rect width="209.23" height="22.67" transform="translate(103.47 494.19)" fill="#41288c"/><path d="M271.99,486.03h82.83a11.9,11.9,0,0,1,11.9,11.9v19.81a11.9,11.9,0,0,1-11.9,11.9H271.99V486.02h0Z" fill="#41288c"/><path d="M711.58,405.17l-19.54-14.41a20.439,20.439,0,0,0-15.05-3.65H641.97l3.06,41.3-11.98,21.36a57.788,57.788,0,0,1-26.64,24.01l-2.89,1.32c-3.67,1.68-2.22,6.66,1.9,6.51l78.9-3.04c20.06-.77,37.25-13.12,42.52-30.52h0c4.76-15.74-1.21-32.53-15.25-42.87Z" fill="#614cd4"/><path d="M625.08,396.27l-30.01,53.5a57.789,57.789,0,0,1-26.64,24.01l-2.89,1.32c-3.67,1.68-2.22,6.66,1.9,6.51l78.9-3.04c20.06-.77,37.25-13.12,42.52-30.52h0c4.76-15.74-1.21-32.53-15.25-42.87l-19.54-14.41c-9.4-6.93-23.52-4.24-28.99,5.51Z" fill="#311e69"/><path d="M348.32,421.35l-2.39-42.71c-1.76-31.38-9.44-59.87-21.27-78.89h0c-9.43-15.17-20.92-23.37-32.73-23.37H199.56c-18.52,0-24.2,19.95-24.2,62.88l-.11,84.11c.03.42.07.83.11,1.24H348.37c.03-1.07.02-2.16-.05-3.26ZM227.46,372.01c0,4.53-4.98,7.7-9.73,6.19l-10.36-3.27c-6.31-1.99-10.53-7.35-10.53-13.36V307.36c0-6.09,5.5-11.03,12.28-11.03h6.06c6.78,0,12.28,4.94,12.28,11.03v64.65Zm97.71,33.07c-.03,4.38-4.76,7.49-9.41,6.19l-66-18.44c-4.69-1.31-7.95-5.14-8.13-9.55l-3.47-85.48c-.15-3.61,3.07-6.61,7.1-6.61h47.46a16.88,16.88,0,0,1,14.75,8.09c16.5,28.96,17.84,84.36,17.7,105.8Z" fill="#a399ff"/><rect width="93.22" height="8.77" transform="translate(235.87 372.21)" fill="#a399ff"/><path d="M350.34,410.61s17.16-20.73,35.34-24.42,23.56-1.2,23.56-1.2,3.68,19.27,1.55,31.74-.62,17-12.74,16.1-41.39-3.85-41.39-3.85l-6.31-18.36Z" fill="#614cd4"/><path d="M125.25,13.07h0Z" transform="translate(226.31 497)" fill="#ffb03b"/></g></g></svg>