<svg xmlns="http://www.w3.org/2000/svg" width="326.419" height="240.335" viewBox="0 0 326.419 240.335"><g transform="translate(-2364.052 -1293.347)"><g transform="translate(-127.578 -59)"><path d="M630.06,561.58l-.09-.78,4.68-.39q.525-.06,1.05-.09h.14a17.04,17.04,0,0,1,3.95.25,17.762,17.762,0,0,1-.67,35.08h-.04a18.28,18.28,0,0,1-1.96.17l-3.09.25-.05-.46c-.14-.02-.28-.04-.43-.07a17.766,17.766,0,0,1-3.49-33.98Z" transform="translate(2078 984.689)" fill="#311e69"/><circle cx="17.77" cy="17.77" r="17.77" transform="translate(2685.688 1571.73) rotate(-64.69)" fill="#1e1240"/><path d="M619.83,576.47a11.671,11.671,0,1,0,13.54-9.44,11.671,11.671,0,0,0-13.54,9.44Z" transform="translate(2078 984.689)" fill="#614cd4"/></g><g transform="matrix(0.998, -0.07, 0.07, 0.998, -16.543, 188.676)"><g transform="translate(-308.859 -87.255)"><path d="M630.06,561.58l-.09-.78,4.68-.39q.525-.06,1.05-.09h.14a17.04,17.04,0,0,1,3.95.25,17.762,17.762,0,0,1-.67,35.08h-.04a18.28,18.28,0,0,1-1.96.17l-3.09.25-.05-.46c-.14-.02-.28-.04-.43-.07a17.766,17.766,0,0,1-3.49-33.98Z" transform="translate(2078 984.689)" fill="#311e69"/><circle cx="17.77" cy="17.77" r="17.77" transform="translate(2685.688 1571.73) rotate(-64.69)" fill="#1e1240"/><path d="M619.83,576.47a11.671,11.671,0,1,0,13.54-9.44,11.671,11.671,0,0,0-13.54,9.44Z" transform="translate(2078 984.689)" fill="#614cd4"/></g><path d="M558.99,506.055l15.564-3.765,105.833,13.362L658.273,552c-6.939,3.391-11.107,5.5-17.171,6.737h-.052c-.115.034-.24.057-.355.08l-9.552,1.848-4.186-3.168-35.085-10.629c-6.246-1.894-10.968-7.531-12.172-14.532l-2.088-12.19Z" transform="translate(1765 920.207)" fill="rgba(240,189,26,0.97)"/><path d="M680.387,515.333l-26.939,8.89L545.937,508.06l27.919-6.122Z" transform="translate(1765 920.207)" fill="#ffef5e"/><path d="M672.583,518.468,563.847,501.815l1.839,30.518c1.6,6.237,7.916,11.259,16.266,12.942l52.566,10.611c12.682,1.657,21.714-3.527,30.227-10.611l7.851-26.807Z" transform="translate(1747.09 926.207)" fill="#ffd140"/><path d="M563.977,531.956l-1.656-19.1c.451-.2-.713-6.715-.239-6.853,10.4-3.042,11.7,20.151,19.512,28.042s19.765,4.526,33.786,1.4,8.307,3.6,16.382,7.628c2.956,1.461,11.705,3.578,14.838,2.545l18.791-7.45-1.232,6.837-3.339,2.635c-6.18,7.005-29.66,11.715-38.87,10.072l-46.212-11.512c-6.062-1.667-10.6-8.078-11.772-14.24Z" transform="translate(1767.101 904.177) rotate(2)" fill="#ff9d3b"/><g transform="translate(-176.083 -36.379)"><path d="M633.649,561.843l-.119-.94,6.186-.47q.694-.072,1.388-.109h.185a24.671,24.671,0,0,1,5.221.3c11.368,1.845,19.577,10.953,19.356,21.478s-8.8,19.34-20.242,20.788h-.053q-1.288.166-2.591.2l-4.084.3-.066-.554c-.185-.024-.37-.048-.568-.084-10.316-1.678-18.163-9.383-19.234-18.886s4.895-18.5,14.621-22.055Z" transform="translate(1913.208 930.655)" fill="#311e69"/><path d="M21.979-.3A21.028,21.028,0,0,1,43.658,20.888c-.165,11.867-10.14,21.621-22.278,21.787A21.028,21.028,0,0,1-.3,21.487C-.134,9.62,9.84-.134,21.979-.3Z" transform="translate(2522.806 1523.354) rotate(-64.69)" fill="#1e1240"/><path d="M619.83,576.47a11.671,11.671,0,1,0,13.54-9.44,11.671,11.671,0,0,0-13.54,9.44Z" transform="translate(1919.867 934.213)" fill="#614cd4"/></g><g transform="translate(-239.121 -48.743)"><path d="M633.649,561.843l-.119-.94,6.186-.47q.694-.072,1.388-.109h.185a24.671,24.671,0,0,1,5.221.3c11.368,1.845,19.577,10.953,19.356,21.478s-8.8,19.34-20.242,20.788h-.053q-1.288.166-2.591.2l-4.084.3-.066-.554c-.185-.024-.37-.048-.568-.084-10.316-1.678-18.163-9.383-19.234-18.886s4.895-18.5,14.621-22.055Z" transform="translate(1913.208 930.655)" fill="#311e69"/><path d="M21.979-.3A21.028,21.028,0,0,1,43.658,20.888c-.165,11.867-10.14,21.621-22.278,21.787A21.028,21.028,0,0,1-.3,21.487C-.134,9.62,9.84-.134,21.979-.3Z" transform="translate(2522.806 1523.354) rotate(-64.69)" fill="#1e1240"/><path d="M619.83,576.47a11.671,11.671,0,1,0,13.54-9.44,11.671,11.671,0,0,0-13.54,9.44Z" transform="translate(1919.867 934.213)" fill="#614cd4"/></g></g><g transform="translate(460 -22.033)"><path d="M377.83,291.2H329.29c8.82,9.67,18.28,55.45,22.36,79.51.94,5.54,1.89,30.83,2.36,44.72a9.39,9.39,0,0,0,9.26,9.2h36.69a9.406,9.406,0,0,0,9.27-9.67c-.2-13.8-.92-39.02-3.45-53.02-8.82-48.67-27.95-70.74-27.95-70.74Z" transform="translate(1653.768 1038)" fill="#a9cad1"/><path d="M374.14,356.35s.27-2.15,3.52-3.62,4.1-.02,6.02.81,1.67-.55,1.93.83-2.78,1.26-3.71,1.07-1.43,1.14-3.56,2.43-4.2-1.52-4.2-1.52Z" transform="translate(1660.527 1041.206)" fill="#ad263d"/><path d="M314.366,326.2s14.43,22.357,22.283,25.895c7.252,3.271,26.99.352,32,6.522s-21.782,15.025-35.886,9.3-26.08-21.771-26.08-21.771l7.686-19.959Z" transform="translate(1670.768 1038)" fill="#ad263d"/><path d="M359.09,365.77l23.56-11.34a1.562,1.562,0,0,1,2.31,1.64l-3.42,11.72a2.644,2.644,0,0,0,.39,2.29l15.24,21.99,3.3,29-17.24,2.47-8.72-50.56a3.09,3.09,0,0,0-2.62-2.43l-12.33-2.09a1.4,1.4,0,0,1-.46-2.69Z" transform="translate(1661.894 1040.322)" fill="#311e69"/><path d="M181.8,447.49H253.18c3.789,0,6.817-10.29,6.969-22.87H175.36c.622,13.25,3.3,22.87,6.44,22.87Z" transform="translate(1752.978 1039)" fill="#ff9d3b"/><path d="M287.5,291.2H244.58a6.6,6.6,0,0,0-6.421,6.985l3.138,90.326a10.922,10.922,0,0,0,7.352,10.091l59.684,19.485a6.619,6.619,0,0,0,8.509-6.541c.127-22.655-1.094-81.2-16.006-111.8-2.826-5.422-7.907-8.678-13.338-8.549Z" transform="translate(1695.091 1036.422)" fill="#a9cad1"/><path d="M262.988,349.54s-10.18-.46-11.343,8.54,13.937,34.31,15.838,37.49,6.258,4.49,6.258,4.49l11.565,3.5,25.5,7.72a6.665,6.665,0,0,0,8.685-6.19c.028-5.02-.018-11.89-.3-19.85s-56.209-35.69-56.209-35.69Z" transform="translate(1677.436 1035)" fill="#614cd4"/><path d="M243.28,324.42V304.91c0-4.74,4.28-8.58,9.55-8.58h32.85c3.71,0,5.18,4.29,2.12,6.18-4.27,2.63-9.58,5.19-14.57,5.61-10.77.91-5.47,5.44-18.17,7.39-5.74.88-6.81,5.4-7.77,9.3-.52,2.13-4.02,1.79-4.02-.4Z" transform="translate(1690.091 1034.422)" fill="#c5dbe0"/><path d="M274.62,386.19s10.62,10.82,21.34,11.5,34.7-4.53,34.7-4.53,9.08,34.24,22.71,34.46,14.64-17.23,13.38-29.02-13.63-24.65-33.82-26.38-32.94-2.45-32.94-2.45l-25.36,16.42Z" transform="translate(1671.768 1035)" fill="#311e69"/><path d="M340.73,349.68c-9.66-5.05-24.84-23.48-24.84-23.48l-9.21,18.73s10.43,10.94,23.97,17.5c3-2.26,8.82-7.25,10.07-12.75Z" transform="translate(1664.768 1038)" fill="#614cd4"/><path d="M273.37,387.37c-11.37-29.64-5.28-56.14-1.32-60.37,10.44-11.16,40.25-8.36,46.12,1.75,5.82,10.02-19.65,22.77-.09,40.1,1.9,1.68-4.49,5.17-6.71,6.5-.8.48-9.11-5.64-9.97-5.2-1.95.98.79,13.78-1.33,14.52-9.21,3.25-25.75,5.15-26.68,2.71Z" transform="translate(1667.768 1038)" fill="#ff9d3b"/><path d="M300.32,310.96s2.6-2.9.94-4.62c-4.81-4.99-9.69.93-9.69.93a4.559,4.559,0,0,0-2.75,2.12c-1.48,2.47,1.8,6.65,1.8,6.65s9.23-1.87,9.7-5.06Z" transform="translate(1668.768 1038)" fill="#311e69"/><path d="M301.26,306.34c-.19-.19-.37-.36-.56-.52-.14.05-.29.1-.47.15a18.793,18.793,0,0,1-4.85.83,28.4,28.4,0,0,0-4.05,1.88c-.26.24-2.58,3.43-2.46,4.29a13.707,13.707,0,0,0,1.74,3.07s9.23-1.87,9.7-5.06c0,0,2.6-2.9.94-4.62Z" transform="translate(1668.768 1038)" fill="#1e1240"/><path d="M291.58,313.02l-2.96,9.22c.05,1.28,7.89,4.51,10.06,2.8.63-.5.39-1.72-.3-3.02l-4.05-7.08-2.74-1.92Z" transform="translate(1668.768 1038)" fill="#ff6161"/><path d="M295.14,316.36c-1.58-.18-3.74-.46-3.74-.46a5.938,5.938,0,0,0,2.52,3.84,6.963,6.963,0,0,0,3.86,1.25l-2.65-4.62Z" transform="translate(1668.768 1038)" fill="#311e69"/><path d="M293.46,309.94l-1.95,5.03a3.222,3.222,0,0,0,2.49,3.95,11.087,11.087,0,0,0,4.42.23c1.61-.15,2.47-1.52,2.51-3.42a16.092,16.092,0,0,0-1.15-5.94C298.71,307.05,295,306.74,293.46,309.94Z" transform="translate(1668.768 1038)" fill="#ff6161"/><path d="M296.77,313.68a10.714,10.714,0,0,0,3.21.14s.03,1.1-.72,1.47-2.07-.29-2.49-1.61Z" transform="translate(1668.768 1038)" fill="#fff"/><path d="M298.96,317.27c-1.8-.35-3.22,2.08-6.37-.3a3.962,3.962,0,0,1-1.03-2.11l-.04.11a3.222,3.222,0,0,0,2.49,3.95,11.087,11.087,0,0,0,4.42.23,2.485,2.485,0,0,0,2.09-1.48,9.4,9.4,0,0,1-1.55-.39Z" transform="translate(1668.768 1038)" fill="#ad263d"/><path d="M293.57,311.99a4.016,4.016,0,0,1-.08-.98c.01-.63-.13-1.56-1.18-1.12-1.52.64-1.6,3.69.12,3.97,1.28.21,1.32-1.05,1.14-1.87Z" transform="translate(1668.768 1038)" fill="#ff6161"/><path d="M283.81,331.43c1.91,6.94-7.48,21.87-3.61,29.78,1.92,3.92,34.96,24.44,35.73,30.67s-46.79,1.18-53.74-29.76c-6.79-30.2,11.31-36.29,15.09-36.01s5.59,1.88,6.54,5.32Z" transform="translate(1671.768 1035)" fill="#ff6161"/><path d="M280.13,350.24l-16.56,1.47s8.78,6.65,15.94,7.41a21.361,21.361,0,0,1,.61-8.88Z" transform="translate(1671.768 1035)" fill="#311e69"/><path d="M313.26,331.56l-4.27,15.62a102.4,102.4,0,0,0,9.68,7.97c1.55-6.29-5.41-23.6-5.41-23.6Z" transform="translate(1664.768 1038)" fill="#311e69"/><path d="M262.31,345.33s1.83,9.1,2.16,11.51,4.96,9.67,12.15,14.46,4.16,7.89,8.29,12.8,8.52,4.54,12.08,5.31,11.46,4.76,11.53,4.79c-13.5-.37-41.15-9.05-46.33-32.08a52.227,52.227,0,0,1-1.38-15.65Z" transform="translate(1671.768 1035)" fill="#ad263d"/><path d="M277.27,326.11c3.77.28,5.59,1.88,6.54,5.32,1.33,4.84-2.83,13.58-4.16,21.1-4.11.71-13.22,1.56-18.97-3.42.28-19.01,13.43-23.23,16.59-22.99Z" transform="translate(1671.768 1035)" fill="#614cd4"/><path d="M279.65,352.52c1.33-7.52,5.49-16.26,4.16-21.1-.94-3.44-2.76-5.04-6.54-5.32a12.717,12.717,0,0,0-6.59,2.18c1.73,2.12,4.49,5.99,3.34,8-1.63,2.86-4.73-.15-4.29,7.22a89.315,89.315,0,0,0,.97,9.43,34.549,34.549,0,0,0,8.95-.41Z" transform="translate(1671.768 1035)" fill="#311e69"/><path d="M278.6,353.94s2.92.71,2.76-.86.18-2.42-.87-2.56-13.23,1.46-16.54-.98-3.38-2.68-3.92-1.79-.35,3.28.69,3.79S274.15,354.91,278.6,353.94Z" transform="translate(1671.768 1035)" fill="#a399ff"/><path d="M335.87,364.65c2.21-3.92,3.84-12.59,3.84-12.59l-9.06,10.37c1.7.82,3.44,1.57,5.22,2.23Z" transform="translate(1666.768 1038)" fill="#311e69"/><path d="M318.16,328.75c-2.57-4.42-9.71-7.44-17.81-8.51a11.126,11.126,0,0,1,2.89,7.82c.01,7.1-1.35,9.71-2.87,17.42s-4.64,9.07.2,17.31a67.12,67.12,0,0,0,9.32,12.05c.75.4,1.3.62,1.47.51,2.22-1.33,8.61-4.82,6.71-6.5-19.56-17.32,5.91-30.07.09-40.1Z" transform="translate(1667.768 1038)" fill="#f46822"/><path d="M328.94,361.94s10.43-10.79,10.25-13.15a5.608,5.608,0,0,1,3.4,1.71s-8.42,11.25-10.91,12.41-2.75-.98-2.75-.98Z" transform="translate(1664.768 1038)" fill="#ff9791"/><path d="M311.65,388.06s6.65-2.44,7.31-1.76,2.04,2.8,3.62,3.19,3.36-.07,2.44,1.78a11.214,11.214,0,0,1-5.66,4.82,7.07,7.07,0,0,1-5.07-.89c-2.96-1.82-2.63-7.14-2.63-7.14Z" transform="translate(1671.768 1035)" fill="#ff6161"/><path d="M379.251,425.26l-1.98-46.62c-1.394-31.38-7.484-59.87-16.87-78.89h0c-7.484-15.17-16.592-23.37-25.962-23.37H281.535c9.354,0,18.454,8.2,25.922,23.37h0c9.369,19.02,10.555,47.51,11.949,78.89l-2.731,44.62c.048,1.1.016,3.325,0,4.395L241.99,424.61c1.006,13.25,5.346,22.87,10.423,22.87H370.278C375.648,447.48,379.83,438.19,379.251,425.26Zm-12.149-.65H338.044c-4.01-.066-7.256-4.137-7.334-9.2-.364-13.89-1.125-39.18-1.869-44.72-3.231-24.06-10.716-69.83-17.709-79.51h38.444s15.143,22.07,22.136,70.74c2.012,13.99,2.574,39.21,2.732,53.02a10.889,10.889,0,0,1-2.069,6.774,6.834,6.834,0,0,1-5.273,2.9Z" transform="translate(1684.466 1039)" fill="#ff9d3b"/><path d="M347.442,317.871c6.221-1.946,4.669-3.024,8.814-5.618s5.014.868,14.517,6.925c3.5,2.232,6.651,1.526,9.025-.63-6.268-18.61-12.48-27.338-12.48-27.338H329.29c3.22,4.3,6.557,16.092,9.519,29.78,2.554-.286,4.834-1.917,8.634-3.11Z" transform="translate(1665.823 1038)" fill="#c5dbe0"/><path d="M254.918,421.35l-1.1-42.71c-.81-31.38-4.345-59.87-9.791-78.89h0c-4.341-15.17-9.63-23.37-15.066-23.37H186.44c-8.525,0-11.14,19.95-11.14,62.88l-.051,84.11c.014.42.032.83.051,1.24h79.64c.014-1.07.009-2.16-.023-3.26Zm-55.634-49.34c0,4.53-2.292,7.7-4.479,6.19l-4.769-3.27c-2.9-1.99-4.847-7.35-4.847-13.36V307.36c0-6.09,2.532-11.03,5.653-11.03h2.79c3.121,0,5.653,4.94,5.653,11.03v64.65Zm44.978,33.07c-.014,4.38-2.191,7.49-4.332,6.19l-30.381-18.44c-2.159-1.31-3.66-5.14-3.742-9.55l-1.6-85.48c-.069-3.61,1.413-6.61,3.268-6.61h21.847c2.765-.12,5.35,2.961,6.79,8.09,7.6,28.96,8.212,84.36,8.148,105.8Z" transform="translate(1751.206 1039)" fill="#ffd140"/><path d="M80.73,8.77h0Z" transform="translate(1924.628 1410.21)" fill="#a399ff"/><path d="M350.34,410.61s16.574-20.73,34.134-24.42,22.756-1.2,22.756-1.2,3.554,19.27,1.5,31.74-.6,17-12.305,16.1-39.977-3.85-39.977-3.85l-6.095-18.36Z" transform="translate(1655.018 1044.27)" fill="#ff9d3b"/></g><path d="M2423.514,1319.355" fill="none" stroke="#707070" stroke-width="1"/><path d="M558.99,506.055,578,502.29l149.939,17.861L680.283,552c-8.477,3.391-13.569,5.5-20.978,6.737h-.064c-.14.034-.293.057-.434.08l-11.669,1.848-5.114-3.168-42.863-10.629c-7.631-1.894-13.4-7.531-14.87-14.532l-2.551-12.19Z" transform="translate(1962 953)" fill="rgba(240,189,26,0.97)"/><path d="M728.471,519.97,693.7,530.359l-155.022-21.8,42.508-6.273Z" transform="translate(1962 953)" fill="#ffef5e"/><g transform="translate(-13 -51)"><path d="M682.1,520.861s-2.418-25.2-13.46-28.757c-13.648-4.379-21.331-.078-21.331-.078s-17.986-30.655-40.983-26.616-37.262,40.815-37.262,40.815L682.1,520.851Z" transform="translate(1978 1012.568)" fill="#7098a1"/><path d="M657.182,514.292c6.609.263,18.215,1.547,23.9.01.752,3.805,1.007,6.559,1.007,6.559L569.05,506.234s14.266-36.766,37.262-40.814a24.161,24.161,0,0,1,5.252-.341,6.3,6.3,0,0,0-3.546,4.934c-.081,4.788,11.3,2.151,3.372,12.544s3.237,17.556,11.122,19.492,10.276,1.791,14.185,5.148c5.277,4.225,12.634,6.779,20.485,7.114Z" transform="translate(1978 1012.568)" fill="#7da3ab"/></g><path d="M711.606,524.6,557.074,502.318l9.642,30.015c1.8,6.237,8.863,11.259,18.212,12.942l58.853,10.611c14.2,1.657,28.688-1.656,38.22-8.74L711.621,524.6Z" transform="translate(1944.09 959)" fill="#ffd140"/><path d="M564.991,531.956l-4.651-19.217a17.366,17.366,0,0,1,1.775-.505c13.307-3.041,15.419,13.923,25.408,21.814s25.279,4.526,43.211,1.4,10.625,3.6,20.951,7.628c3.781,1.461,14.971,3.578,18.976,2.545l5.431,6.41c-7.9,7.005-25.177,7.327-36.956,5.684l-59.05-12.961c-7.753-1.667-13.614-6.629-15.107-12.791Z" transform="matrix(0.999, -0.035, 0.035, 0.999, 1927.745, 979.539)" fill="#ff9d3b"/><g transform="translate(14 3)"><path d="M630.06,561.58l-.09-.78,4.68-.39q.525-.06,1.05-.09h.14a17.04,17.04,0,0,1,3.95.25,17.762,17.762,0,0,1-.67,35.08h-.04a18.28,18.28,0,0,1-1.96.17l-3.09.25-.05-.46c-.14-.02-.28-.04-.43-.07a17.766,17.766,0,0,1-3.49-33.98Z" transform="translate(1915.118 928.447)" fill="#311e69"/><circle cx="17.77" cy="17.77" r="17.77" transform="translate(2522.806 1515.488) rotate(-64.69)" fill="#1e1240"/><path d="M619.83,576.47a11.671,11.671,0,1,0,13.54-9.44,11.671,11.671,0,0,0-13.54,9.44Z" transform="translate(1915.118 928.447)" fill="#614cd4"/></g></g></svg>