<?xml version="1.0" standalone="no"?>
<!DOCTYPE svg PUBLIC "-//W3C//DTD SVG 20010904//EN"
 "http://www.w3.org/TR/2001/REC-SVG-20010904/DTD/svg10.dtd">
<svg version="1.0" xmlns="http://www.w3.org/2000/svg"
 width="1200.000000pt" height="1200.000000pt" viewBox="0 0 1200.000000 1200.000000"
 preserveAspectRatio="xMidYMid meet">
<metadata>
Created by potrace 1.14, written by Peter Selinger 2001-2017
</metadata>
<g transform="translate(0.000000,1200.000000) scale(0.100000,-0.100000)"
fill="#000000" stroke="none">
<path d="M11165 10464 c-80 -43 -100 -81 -145 -264 -51 -208 -31 -182 -199
-262 -206 -99 -381 -183 -566 -273 -88 -43 -209 -101 -270 -130 -60 -29 -211
-102 -335 -162 -124 -60 -259 -124 -300 -143 -41 -19 -92 -44 -112 -57 -21
-13 -40 -23 -43 -23 -7 0 -93 -41 -350 -165 -322 -156 -425 -206 -850 -410
-71 -35 -206 -100 -300 -145 -93 -45 -188 -90 -210 -100 -22 -10 -170 -46
-330 -80 -272 -58 -528 -128 -620 -170 -22 -10 -69 -30 -105 -45 -63 -26 -99
-45 -225 -116 -152 -85 -346 -242 -482 -391 l-42 -46 -25 32 c-35 47 -154 161
-199 192 -45 30 -115 66 -177 90 -42 16 -134 17 -1296 19 -1017 2 -1258 0
-1290 -11 -150 -51 -232 -361 -260 -989 -3 -77 -8 -142 -11 -145 -2 -2 -165
-5 -361 -5 l-357 -1 -52 -27 c-29 -15 -68 -41 -88 -59 -108 -94 -215 -311
-264 -535 -52 -232 -53 -267 -54 -1078 -1 -751 -1 -761 21 -830 25 -82 73
-152 110 -162 15 -4 109 -7 209 -7 l183 0 1 -41 c0 -22 2 -47 3 -55 2 -8 6
-38 10 -65 10 -86 54 -247 85 -310 38 -78 78 -115 128 -122 l40 -5 1 -139 c1
-76 -2 -140 -6 -143 -8 -5 -64 -10 -222 -21 -110 -8 -217 -15 -280 -20 -30 -3
-91 -7 -135 -10 -44 -3 -107 -7 -140 -10 -95 -8 -305 -22 -450 -30 -404 -23
-705 -239 -791 -568 -26 -98 -15 -308 21 -405 71 -194 199 -328 406 -424 94
-44 156 -60 294 -77 39 -5 1861 -8 4050 -7 l3980 2 80 22 c241 67 420 224 505
445 33 84 44 151 44 267 -1 157 -26 261 -91 380 -50 90 -187 224 -278 271
-126 66 -198 81 -485 104 -41 3 -95 8 -120 10 -25 2 -83 7 -130 10 -84 6 -110
8 -245 20 -38 3 -95 8 -125 10 -53 4 -141 12 -245 20 -27 3 -88 7 -135 10 -47
3 -98 7 -115 10 -16 2 -77 7 -135 11 -58 3 -112 8 -121 9 -8 2 -55 6 -105 9
-49 4 -111 9 -139 11 -27 3 -81 7 -120 10 -38 3 -92 7 -120 10 -27 2 -86 7
-130 10 -44 4 -94 8 -112 10 -37 5 -237 18 -270 19 -27 0 -25 -9 -27 94 l-2
83 30 16 c123 63 198 288 198 587 -1 232 -11 746 -16 791 -2 22 -7 94 -10 160
-6 108 -9 155 -21 306 -5 66 -14 147 -31 284 -8 66 -17 140 -20 165 -3 25 -7
56 -10 70 -2 14 -6 45 -9 70 -2 25 -14 100 -26 167 l-21 123 107 137 c59 76
114 147 123 158 10 11 33 40 52 65 19 25 44 56 55 70 11 14 87 93 170 175 204
204 392 345 656 493 112 63 311 162 325 162 3 0 31 12 62 26 123 57 447 161
1182 381 47 14 103 31 125 39 22 7 227 70 455 139 228 70 465 142 525 160 412
128 570 175 582 175 7 0 13 -6 14 -12 0 -7 2 -20 3 -28 4 -17 14 -119 30 -290
4 -41 9 -82 11 -90 2 -8 6 -46 10 -85 3 -38 8 -81 10 -95 2 -14 6 -51 9 -82 4
-32 9 -84 12 -115 8 -73 10 -92 19 -178 3 -38 8 -81 10 -95 4 -25 11 -85 20
-182 3 -29 7 -69 10 -88 2 -19 7 -62 10 -95 4 -33 8 -73 10 -90 3 -16 7 -57
10 -90 10 -108 18 -175 30 -275 3 -25 7 -67 10 -95 6 -70 15 -147 30 -275 3
-25 7 -67 10 -95 3 -27 8 -77 12 -110 4 -33 7 -82 7 -108 l1 -49 -55 -2 c-129
-6 -187 -65 -270 -276 -23 -58 -46 -114 -50 -125 -5 -11 -25 -60 -45 -110 -19
-49 -40 -98 -45 -107 -6 -10 -10 -23 -10 -29 0 -6 -7 -25 -15 -42 -8 -18 -37
-90 -66 -162 -28 -71 -57 -143 -64 -160 -7 -16 -31 -77 -55 -135 -49 -122
-103 -218 -168 -298 -64 -79 -86 -100 -174 -165 -91 -67 -102 -83 -87 -126 14
-39 29 -43 131 -37 46 3 139 8 208 11 69 4 127 8 131 10 3 2 19 -3 35 -11 29
-15 60 -15 314 1 36 2 117 7 180 10 63 4 144 8 180 10 36 2 121 6 190 10 294
14 327 19 421 65 176 85 306 256 369 485 20 73 25 129 24 255 -3 247 -77 433
-239 605 -240 253 -309 315 -351 315 -26 0 -42 19 -38 44 1 11 5 74 8 140 6
120 12 233 21 376 2 41 7 120 10 175 3 55 7 143 10 195 3 52 8 138 10 190 3
52 8 131 10 175 8 117 13 215 20 350 3 66 8 147 10 180 2 33 7 114 10 180 4
66 8 145 10 175 2 30 6 109 10 175 3 66 8 152 10 190 2 39 6 120 10 180 3 61
8 144 10 185 3 41 7 125 10 185 3 61 7 139 10 175 2 36 6 115 10 175 3 61 8
139 10 175 2 36 7 119 10 185 10 193 14 263 21 380 18 270 6 362 -54 432 -32
37 -184 158 -225 180 -45 23 -117 26 -152 7z m-334 -1009 l-58 -230 -73 -115
c-40 -63 -74 -117 -76 -119 -2 -2 -214 -49 -294 -65 -14 -2 -47 -10 -75 -16
-27 -6 -61 -14 -75 -16 -14 -3 -68 -14 -120 -25 -52 -11 -106 -23 -119 -25
-13 -3 -119 -25 -235 -50 -116 -25 -220 -48 -231 -50 -11 -2 -29 -6 -40 -8
-11 -3 -83 -18 -160 -35 -77 -16 -151 -32 -165 -35 -14 -2 -78 -16 -143 -30
-65 -14 -132 -28 -148 -31 -16 -3 -57 -12 -91 -20 -35 -8 -74 -16 -88 -19 -14
-2 -47 -9 -74 -15 -27 -7 -51 -9 -54 -6 -3 3 -1 5 5 5 6 0 102 44 214 99 112
54 263 126 334 161 72 35 209 101 305 147 96 47 236 114 310 150 219 106 384
185 575 278 174 85 385 187 550 266 43 21 80 37 82 36 1 -2 -24 -106 -56 -232z"/>
</g>
</svg>
