<svg xmlns="http://www.w3.org/2000/svg" width="1000" height="700" viewBox="0 0 1000 700"><rect width="1000" height="700" fill="none"/><path d="M143.19,639.2H896.88c54.06,0,92.44-74.48,74.77-146-14.1-57.07-38.1-114.42-78.9-137.82-18.7-10.73-33.03-32.66-39.54-59.44-14.29-58.78-46.78-149.5-111.48-151.33-50.92-1.44-80.55,24.56-97.15,49.25-13.6,20.24-32.93,31.09-52.7,28.47a58.233,58.233,0,0,0-20.55.87c-.75.17-1.49.34-2.21.52-22.96,5.62-46.1-8.51-59.11-35.59C472.56,110.11,389.64-15.6,267.35,57.89,129.46,140.76,43.6,401.74,66.27,552.77c7.6,50.61,39.97,86.42,76.92,86.42Z" fill="#c5dbe0"/><path d="M65.03,543.34q.555,4.785,1.24,9.44c7.6,50.61,39.97,86.42,76.92,86.42H896.88c41.3,0,73.44-43.46,78.44-95.86Z" fill="#a9cad1"/><path d="M215.22,593.54h23.49l15.04-11.34H230.26Z" fill="#f0f8fa"/><path d="M546.96,593.54h47.81l15.04-11.34h-47.8Z" fill="#f0f8fa"/><path d="M457.95,593.54h47.8l15.04-11.34h-47.8Z" fill="#f0f8fa"/><path d="M368.93,593.54h47.81l15.04-11.34H383.97Z" fill="#f0f8fa"/><path d="M725,593.54h47.8l15.04-11.34h-47.8Z" fill="#f0f8fa"/><path d="M279.92,593.54h47.8l15.04-11.34h-47.8Z" fill="#f0f8fa"/><path d="M814.01,593.54h47.81l15.04-11.34H829.05Z" fill="#f0f8fa"/><path d="M222.28,185.48s6.62-40.54,30.9-44.96,18.76,16.74,18.76,16.74S289.4,93.99,321.5,93.81s37.06,8.17,37.06,8.17,12.14-19.97,24.28-16.64,13.79,49.71,0,67.07c0,0,50.21-36.16,76.14-4.71s-42.49,78.98-107.04,78.11-168.29,29.46-129.66-40.33Z" fill="#fff"/><path d="M435.27,163.24c-29.8-17.56-74.49,25.85-74.49,25.85s20.42-51.33,15.04-62.86-17.24,6-17.24,6-3.31-19.3-37.06-16.13-54.05,62.98-54.05,62.98,1.73-10.97-14.27-14.41c-8.86-1.9-19.95,3.92-28.08,9.48a90.861,90.861,0,0,0-2.81,11.32c-38.62,69.79,65.11,39.46,129.67,40.33,36.95.5,75.16-14.87,96.23-33.99.06-12.54-3.96-23.3-12.91-28.57Z" fill="#f0f8fa"/><path d="M694.65,540.13a3.291,3.291,0,0,1-2.93-1.5c-7.36-11.34-50.91-80.44-43.48-116.82,8.11-39.71,31.66-47.9,43.4-44.01s26.82,13.89,40.9,37.22c9.69,16.04.28,68.6-6.54,99.86a32.03,32.03,0,0,1-29.7,25.18l-1.64.08Z" fill="#4cb4d4"/><path d="M732.54,415.01c-14.08-23.33-29.17-33.33-40.9-37.22a22.04,22.04,0,0,0-14.23.7c1.34,9.55,12.73,18.34,19.66,23.31,8.44,6.06,15.8,16.31,3.26,25.39s.31,17.96,5.13,37.42,9.5,30.97-2.06,44.34c-8.36,9.67-10.18,21.7-10.55,27.62a3.278,3.278,0,0,0,3.46,3.47h0a32.01,32.01,0,0,0,29.7-25.18c6.82-31.25,16.23-83.82,6.54-99.86Z" fill="#2e88bf"/><path d="M745.71,550.36a10.98,10.98,0,0,1-11.2-10.12c-1.55-19.69-3.27-62.46,8.5-83.33,15.58-27.62,23.88-73.44,6.52-101.54s-12.97-49.31-9.57-80.91-11.9-56.86,24.51-47.87,38.08,76.89,41.62,94.93,39.07,59.5,34.39,95.69c-4.33,33.56-78.13,112.98-89.49,130.21a6.474,6.474,0,0,1-5.28,2.94Z" fill="#2e88bf"/><path d="M749.52,355.37c-17.36-28.1-12.97-49.31-9.57-80.91,2.43-22.57-4.67-41.89,4.32-47.83,6.99,6.14,13.7,12.77,17.13,18.21,9.01,14.27,15.54,67.52,10.59,91.43s23.8,52.42,23.8,73.81-34.94,62.14-28.42,78.34c3.45,8.57,4.24,22.2,4.23,33.13-9.79,11.86-17.59,21.25-20.66,25.94a6.431,6.431,0,0,1-5.23,2.87h0a10.98,10.98,0,0,1-11.2-10.12c-1.55-19.69-3.27-62.47,8.5-83.33,15.58-27.62,23.88-73.44,6.52-101.54Z" fill="#4cb4d4"/><path d="M857.76,543.27c-15.53-1.78-28.29-52.6-30.45-82.79s21.39-20.16,20.75-59.64-36.09-92.82-1.34-107.99,80,92.24,66.54,130.44-26.22,123.34-55.5,119.98Z" fill="#4cb4d4"/><path d="M913.25,423.29c13.46-38.21-31.8-145.62-66.54-130.44a30.674,30.674,0,0,0-2.81,1.41c.31,11.04,2.14,26.51,9.47,33.56,12.05,11.57,10.97-10.11,20.23,3.92s10.1,44.28,5.69,61.62-10.56-23.18-14.55-5.86,13.43,30.95,7.44,58.9-17.36,24.57-15.72,44.25c1.19,14.34.33,36.45,2.07,52.64,28.72,1.75,41.38-82.14,54.72-120Z" fill="#2e88bf"/><path d="M899.55,118.81s-7.76-22.69-16.18-27.96-17.52,7.45-17.52,7.45-7.23-11.72-29.6-22.59-33.96,23.48-33.96,23.48c-14.64-.76-18.07,16.65-18.07,16.65-1.39-2.27-8.49-4.04-14.57-5.17-2.09.8-16.47,6.75-14.76,18.54,1.84,12.71,95.39,17.04,110.72,14.92s46.72-4.13,53.51-15.89a7.861,7.861,0,0,0-.38-8.64,45.413,45.413,0,0,0-19.19-.78Z" fill="#f0f8fa"/><path d="M381.42,639.2l37.36-18.13h47.91l41.1-8.09,47.73,5.66,9.87,20.56Z" fill="#7da3ab"/><path d="M609.81,595.97l19.85,2.43,6.88-10.53,27.53-2.83,11.75-19.44h46.56v-6.47l-13.77-7.7,2.43-8.09h11.34v4.45l8.91,7.29,42.51,5.67,31.99-8.91-18.61,12.14-20.26,3.24-32.39-5.26,4.45,10.12-57.9-2.43,32.39,12.55-57.09,9.07,16.6,13.2-25.1,2.03-57.09-1.22Z" fill="#7da3ab"/><path d="M755.86,575.7c15.06-2.69,20.56-21.38,9.46-31.92-11.3-10.73-24.75-21.66-33.63-22.82-17.92-2.34-20.58,0-20.58,0s-21.91-42.18-53.77-45.49-67.05,41.8-67.05,41.8-48.46,26.58-55.76,45.16C528.42,577.98,684.49,588.45,755.86,575.7Z" fill="#7da3ab"/><path d="M731.69,520.96c-17.92-2.34-20.58,0-20.58,0s-21.91-42.18-53.77-45.49a40.416,40.416,0,0,0-17.97,2.61c10.82,4.97,24.08,12.46,20.84,18.14-5.31,9.29,27.44,21.69,34.08,28.77s21.24,0,21.24,0,27,22.57,0,23.46-67.71-11.51-67.71-11.51-6.2,2.66-27.88,5.31c-15.86,1.94-37.63-8.19-48.19-13.77-14.52,9.42-32.94,23.06-37.22,33.96-6.11,15.55,149.96,26.02,221.33,13.27,15.06-2.69,20.56-21.38,9.46-31.92-11.3-10.73-24.75-21.66-33.63-22.82Z" fill="#7098a1"/><path d="M779.28,442.06s-5.87-42.22-1.29-48.04,16.49,32.88,16.27,44.08c-.22,11.23-14.98,3.96-14.98,3.96Z" fill="#614cd4"/><path d="M786.1,444.22c3.9.58,8.04-.21,8.16-6.11.19-9.71-8.72-40.07-14.09-44.2-.25,3.5-.39,10.93,2.24,16.21,3.55,7.13,4.28,9.24,4.05,17.9-.16,5.87-.26,11.31-.36,16.2Z" fill="#311e69"/><path d="M785.59,443.1s-8.15,35.41-8.54,55.77c-.31,16.32,5.86,47.2,14.83,49.02s10.93-17.35,4.49-51.39c-2.22-11.73,23-55.55,10.06-66.77-5.35-4.64-20.84,13.38-20.84,13.38Z" fill="#f46822"/><path d="M796.83,455.71c-3.74,9.09-10.48,20.95-8.94,28.84s-3.64,20.48-.69,29.95c2.76,8.86,8.49,27.98,9.65,31.47,4.45-5.68,4.5-23.12-.49-49.49-1.71-9.06,12.92-37.24,13.73-54.79-1.71-5.23-10.53,7.34-13.27,14Z" fill="#c63f20"/><path d="M783.22,541.97c2,8.43,4.54,14.38,4.06,15.03-.69.95-13.07,6.02-13.33,7.37-.43,2.24,23.07,3.63,27.12,1.69,2.11-1.02.34-6.08-.33-9.36-.15-.72.59-9.27.31-16.66-3.23-3.14-7.8-3.59-11.6-3.68-4.2-.1-6.24,1.86-6.23,5.61Z" fill="#311e69"/><path d="M828.05,494.35s12.68-62.19-1.89-68.81-25.63,7.07-25.63,7.07,6.11,53.24,9.43,70.78c2.42,12.76,12.27,49.73,11.66,50.62s13.12,2.45,12.42-.57c-.19-.82.93-23.84-.78-41.07-.83-8.38-5.2-18.02-5.2-18.02Z" fill="#f46822"/><path d="M833.25,512.36c-.83-8.38-5.2-18.02-5.2-18.02s9.81-48.11,2.25-64.2c-3.69,10.22-13.72,39.09-12.74,48.49,1.2,11.5-5.21,7.55,0,21.82s7.08,20.42,7.61,31.65c.34,7.13.82,16.4,2.42,23.07,3.35.15,6.79-.19,6.43-1.74-.19-.82.93-23.84-.78-41.07Z" fill="#c63f20"/><path d="M793.71,440.88c-2.01-12.56-11.83-7.88-13.35-4.07-4.02,10.08,3.57,31.28,7.68,44.48,1.64,5.27,3.42,8.77,5.18,8.21,3-.96,4.71-4.88,5.6-10.12,2.22-13.09-4.43-34.26-5.11-38.49Z" fill="#ff6161"/><path d="M827.57,426.42l-25.06,11.64a38.262,38.262,0,0,0,14.97,2.21,49.088,49.088,0,0,0,14.8-3.36c-.83-4.79-2.31-8.55-4.7-10.49Z" fill="#311e69"/><path d="M830.64,429.69c3.84-17.24-3.45-55.09-21.57-57.14-11.65-1.31-37.61,14.78-30.36,31.33,1.89,4.33,8.39,6.65,11.03,11.48,1.61,2.95-1.27,11.7-.92,15.41.65,6.86,10.71,8.91,17.52,7.85,17.43-2.71,22.77-2.01,24.31-8.92Z" fill="#ff9d3b"/><path d="M818.84,436.81c7.74-1.17,10.71-2.26,11.8-7.13,3.09-13.87-1.03-41.11-12.21-52.27-2.36,1.33-4.8,2.92-4.8,2.92s-.23,17.54,3.93,26.37,1.95,19.89,1.34,29.2c-.02.31-.04.61-.06.91Z" fill="#f46822"/><path d="M745.36,547.92l4.91,4.07,101.17-122a3.193,3.193,0,0,0-.4-4.48h0a3.193,3.193,0,0,0-4.51.4l-101.17,122Z" fill="#614cd4"/><path d="M790.13,486.79s-1.22,7.05-.67,8.77-.92,4.53-.04,4.88,3.14-3.23,3.34-5.6,2.32-3.91,2.19-6.33-4.58-3.22-4.82-1.72Z" fill="#ff6161"/><path d="M796.23,499.77a3.556,3.556,0,0,1-2.23.47c-.81-.11-1.62-.52-1.2-1.79,1.27-3.92,4.5-4.14,4.8-5.82s.23-3.25,1.83-3.15c1.51.1,1.8,7.41-3.19,10.29Z" fill="#ff6161"/><path d="M808.39,378.32a4.488,4.488,0,0,1,4.36-5.72c10.55.12,33.84,1.83,48,13.73,8.46,7.11-1.14,46.49-16.35,41.82-5.76-1.77,2.52-33.48,2.52-33.48s-27.09-1.14-34.3-8.22c-2.1-2.07-3.43-5.31-4.23-8.13Z" fill="#ff6161"/><path d="M817.37,544.53c1.85,4.22,4.63,11.9,4.17,12.56-.67.97-12.93,6.33-13.15,7.68-.37,2.25,23.15,3.09,27.15,1.05,2.09-1.07.2-6.08-.55-9.35-.17-.72,2.1-7.6,2-10.67-3.3-3.06-11.19-6.47-14.98-6.47-4.2,0-4.73,1.43-4.63,5.19Z" fill="#311e69"/><path d="M860.75,386.33a42.367,42.367,0,0,0-6.76-4.6l1.77,6.47s6.09,9.07,3.5,14.83-8.85,15.88-8.85,15.88-3.39,4.29-3.53,9.11c0,.16.03.34.04.51,13.72-.05,21.82-35.47,13.83-42.18Z" fill="#ad263d"/><path d="M842.19,425.14c-2.01,2.1-5.01,5.88-4.39,9.22a.8.8,0,0,0,1.41.37l1.8-2.17s2.55,1.34,1.04,7.67a1.474,1.474,0,0,0,1.56,1.82,4.5,4.5,0,0,0,3.17-1.91c2.27-3.05,4.95-11.79,2.9-14.61a4.8,4.8,0,0,0-7.48-.39Z" fill="#ff6161"/><path d="M825.14,387.58l-11.51-1.92s5.43,9.95,14.91,11.31a64.643,64.643,0,0,0-3.4-9.39Z" fill="#311e69"/><path d="M765.32,552.95c-4.44-2.22-12.35-6.29-15.28-8.53-.37-.29-.83-.68-1.33-1.15h0a70.079,70.079,0,0,1-10.93-4.97,4.893,4.893,0,0,0-6.05,1.04c-8.85,9.89-18.86,27.43-5.13,36.09,18.33,11.57,34.59-9.61,39.98-17.85a3.2,3.2,0,0,0-1.26-4.62Z" fill="#c5dbe0"/><path d="M746.81,548.88s-16.57,16.22-16.4,21.56S744.85,559.39,746.81,548.88Z" fill="#7da3ab"/><path d="M715.03,580.31h44.72a2.546,2.546,0,0,0,1.34-4.71c-5.06-3.14-11.45-6.53-14.16-5.63-4.81,1.6-7.13,3.21-9.45,2.85s-5.7-4.48-11.58-4.63-11.94,7.84-10.87,12.12Z" fill="#7da3ab"/><path d="M789.26,380.4s-4.26,1.78-3.66,5.26,9.74,16.29,9.74,16.29,7.05-23.81,4.1-25.4-10.18,3.85-10.18,3.85Z" fill="#614cd4"/><path d="M858.02,384.23c-14.27-10.01-35.36-11.52-45.26-11.63a4.483,4.483,0,0,0-4.36,5.72c.81,2.82,2.13,6.06,4.23,8.13,7.22,7.08,34.3,8.22,34.3,8.22s8.52-3.29,11.09-10.43Z" fill="#614cd4"/><path d="M808.72,375.04c.81.64,2.71,1.68,6.39,1.55,5.28-.19,6.24-1.83,14.01,0s8.83,3.17,11.71,4.7,2.4,1.78,6.43,2.71,2.78-2.9,6.05,1.03c.85,1.03,1.67,2.12,2.45,3.16a14.13,14.13,0,0,0,2.26-3.96c-14.27-10.01-35.36-11.52-45.26-11.63a4.461,4.461,0,0,0-4.03,2.44Z" fill="#311e69"/><path d="M789.38,364.01s6.77,6.8,3.57,9.56-10.49-4.89-9.32-6.76S789.38,364.01,789.38,364.01Z" fill="#311e69"/><path d="M790.48,369.54l6.87,8.82c.52,1.45-5.87,8.22-8.81,7.19-.86-.3-1.16-1.76-1.06-3.49l.87-9.53,2.13-3Z" fill="#ff6161"/><path d="M788.18,374.45c1.5-.85,3.54-2.03,3.54-2.03a7.313,7.313,0,0,1-.8,5.3,6.975,6.975,0,0,1-3.31,2.95Z" fill="#311e69"/><path d="M786.4,367.03l4.88,4.15a3.9,3.9,0,0,1,.09,5.45,10.712,10.712,0,0,1-3.97,2.66c-1.59.73-3.23-.23-4.42-2.17a21.074,21.074,0,0,1-2.55-6.79c-.68-3.42,2.59-5.77,5.97-3.3Z" fill="#ff6161"/><path d="M785.68,373.38s-3.13,1.17-2.91,1.91c0,0,.15.42,1.02.11a3.053,3.053,0,0,0,1.88-2.01Z" fill="#fff"/><path d="M785.75,377.64c1.46-1.35,4.26.39,5.75-3.8a4.983,4.983,0,0,0-.33-2.75l.11.09a3.9,3.9,0,0,1,.09,5.45,10.712,10.712,0,0,1-3.97,2.66,2.711,2.711,0,0,1-2.85-.39c.32-.13.76-.84,1.21-1.26Z" fill="#ad263d"/><path d="M787.28,365.55l4.01.18a.92.92,0,0,1,.82.6l.31,1.32-6.04-.16.89-1.94Z" fill="#e8e8e8"/><path d="M788.56,368.99a5.9,5.9,0,0,0,.04-1.19c-.04-.75.07-1.88,1.22-1.39,1.67.71,1.67,4.74-.18,5.15-1.37.3-1.24-1.58-1.09-2.57Z" fill="#ff6161"/><path d="M777.27,367.81c-.06-.33-.13-.65-.21-.98-.27-1.09-.57-3.84,2.47-6.29.41-.33.44-1.27.91-1.64,2.07-1.56,3.26-.45,4.11-.63,2.43-.53,3.36.15,5.06,2.74,1.64,2.51,1.26,3.27,1.26,3.27s-4.41,3.7-7.91,4.92c-3.23,1.12-5.34.46-5.7-1.39Z" fill="#ffb03b"/><path d="M789.61,361.01c-1.7-2.59-2.63-3.28-5.06-2.74a.968.968,0,0,1-.38.01,5.926,5.926,0,0,0-1.52,2.67,18.565,18.565,0,0,0,.68,6.21c.13.34,1.19.6,2.31.78a40.972,40.972,0,0,0,5.23-3.66s.38-.76-1.26-3.27Z" fill="#ff9147"/><path d="M777.95,368.72c-.56-.33-.12,3.54,2.82,2.78,6.25-1.61,7.45-5.22,7.45-5.22s-7.5,4.05-10.28,2.44Z" fill="#ffcc80"/><path d="M831.25,411.58c-2.75,1.56-10.28,5.53-16.62,5.99l.86,8.06s9.92-.5,16.13-5.21A77.042,77.042,0,0,0,831.25,411.58Z" fill="#f0f8fa"/><path d="M819.91,416.53a60.769,60.769,0,0,1-.08,8.53c3.43-.63,8.22-1.94,11.79-4.65v-2.44c0-.51-.02-1.02-.04-1.54,0-.19-.01-.37-.02-.56-.03-.58-.06-1.16-.1-1.75,0-.11-.01-.22-.02-.33-.05-.7-.11-1.4-.18-2.11a.34.34,0,0,0-.01-.1,57.977,57.977,0,0,1-11.33,4.96Z" fill="#ffc285"/><path d="M794.26,478.17c.27,2.96.68,6.66,1.08,9.97,1.73-1.77,2.83-4.91,3.48-8.76,2.22-13.09-4.43-34.26-5.11-38.49-1.38-8.63-6.45-9.12-9.97-7.35a10.613,10.613,0,0,0,.81,4.47c3.02,7.77,6.65,18.28,7.5,24.76s1.57,8.35,2.22,15.4Z" fill="#ad263d"/><path d="M834.02,524.73c-6.23.79-14.75,1.01-18.91,1.07.63,2.59,1.27,5.19,1.89,7.71a135.535,135.535,0,0,0,17.19-1.15c-.03-2.48-.08-5.04-.17-7.62Z" fill="#ffd140"/><path d="M834.13,528.61v-.07c-.03-1.26-.06-2.53-.11-3.8h0c-2.87.35-6.21.59-9.4.75.25,2.06.43,4.21.55,6.61.02.36.04.75.06,1.12,3.03-.23,6.17-.55,8.96-.88-.01-1.23-.03-2.47-.06-3.74Z" fill="#f46822"/><path d="M779.7,523.33a99.246,99.246,0,0,0,2.9,10.91,130.454,130.454,0,0,0,17.45-.56,94.709,94.709,0,0,0-.17-11.63c-6.77,1.43-15.77,1.4-20.17,1.28Z" fill="#ffd140"/><path d="M800.14,528.22q-.045-2.895-.27-6.16a66.285,66.285,0,0,1-9.99,1.17c1.09,3.57,2.26,7.41,3.33,10.94,2.54-.13,4.92-.31,6.83-.48h0c.05-.82.08-1.66.09-2.54v-.12c.02-.87.02-1.78,0-2.71v-.1Z" fill="#f46822"/><path d="M637.57,211.34l18.18-51.97c3.74-5.99,12.31-7.96,18.79-4.31l10.14,5.71a12.812,12.812,0,0,1,6.84,11.92L674.79,389.52c-.39,5.9-6.21,10.44-12.73,9.67-4.33-.51-9.07-3.35-12.94-11.31a9.386,9.386,0,0,1-.82-2.67L624.32,226.34l13.24-15Z" fill="#ffd140"/><path d="M665.44,211.52h0c-3.62-5.69-11.09-8.44-18.12-6.66l-6.77,1.71-2.98,4.76-13.24,15,2.54,16.84,30.8-11.36c8.88-3.27,12.52-12.81,7.76-20.29Z" fill="#ff9d3b"/><path d="M374.48,326.25l35.76-48.86a94.166,94.166,0,0,1,32.7-27.75h0a103.9,103.9,0,0,1,22.44-8.52l176.54-44.71c7.02-1.78,14.49.97,18.12,6.66h0c4.76,7.48,1.11,17.02-7.76,20.29L515.13,273.95c-30.29,11.17-55.62,31.05-72.01,56.51l-45.3,70.36L374.5,326.23Z" fill="#ffd140"/><path d="M431.18,302.32,385.09,360.2l12.71,40.65,45.3-70.36c16.4-25.47,41.72-45.34,72.01-56.51l137.15-50.59c7.15-2.64,10.9-9.34,9.61-15.76L499.05,257.12c-27.34,8.31-51.08,24.12-67.87,45.21Z" fill="#ff9d3b"/><path d="M377.83,291.2H329.29c8.82,9.67,18.28,55.45,22.36,79.51.94,5.54,1.89,30.83,2.36,44.72a9.39,9.39,0,0,0,9.26,9.2h36.69a9.406,9.406,0,0,0,9.27-9.67c-.2-13.8-.92-39.02-3.45-53.02-8.82-48.67-27.95-70.74-27.95-70.74Z" fill="#a9cad1"/><path d="M460.07,244.17a4.57,4.57,0,0,0-2.56,6.33,5.38,5.38,0,0,0,4.81,2.75,5.709,5.709,0,0,0,2.24-.45l113.73-47.72-6-7.99L460.08,244.17Z" fill="#ffd140"/><path d="M669.72,161.45a5.583,5.583,0,0,0-7.05-2.3l-90.4,37.93,6,7.99,88.88-37.3a4.57,4.57,0,0,0,2.56-6.33Z" fill="#a399ff"/><path d="M374.14,356.35s.27-2.15,3.52-3.62,4.1-.02,6.02.81,1.67-.55,1.93.83-2.78,1.26-3.71,1.07-1.43,1.14-3.56,2.43-4.2-1.52-4.2-1.52Z" fill="#ad263d"/><path d="M315.89,326.2s17.29,20.98,26.7,24.3c8.69,3.07,32.34.33,38.34,6.12s-26.1,14.1-43,8.73-31.25-20.43-31.25-20.43l9.21-18.73Z" fill="#ad263d"/><path d="M359.09,365.77l23.56-11.34a1.562,1.562,0,0,1,2.31,1.64l-3.42,11.72a2.644,2.644,0,0,0,.39,2.29l15.24,21.99,3.3,29-17.24,2.47-8.72-50.56a3.09,3.09,0,0,0-2.62-2.43l-12.33-2.09a1.4,1.4,0,0,1-.46-2.69Z" fill="#311e69"/><path d="M463.96,544.27H180.79c-22.83,0-41.4-16.68-41.4-37.19v-3.9c0-20.48,18.52-37.14,41.31-37.19l139.15-10.61h5.13l139.07,10.61c22.79.04,41.31,16.71,41.31,37.19v3.9C505.36,527.58,486.79,544.27,463.96,544.27Z" fill="#7966e3"/><path d="M431.04,544.27H147.86c-22.83,0-41.4-16.68-41.4-37.19v-3.9c0-20.48,18.52-37.14,41.31-37.19l139.15-10.61h5.13l139.07,10.61c22.79.04,41.31,16.71,41.31,37.19v3.9c0,20.5-18.57,37.19-41.4,37.19ZM147.87,469.63c-20.6,0-37.36,15.05-37.36,33.56v3.9c0,18.5,16.76,33.56,37.36,33.56H431.04c20.6,0,37.36-15.05,37.36-33.56v-3.9c0-18.5-16.76-33.56-37.36-33.56h-.17L291.81,459.02h-4.7L147.96,469.63h-.09Z" fill="#614cd4"/><path d="M147.86,469.63c-20.6,0-37.36,15.05-37.36,33.56v3.9c0,18.5,16.76,33.56,37.36,33.56H431.04c20.6,0,37.36-15.05,37.36-33.56v-3.9c0-18.5-16.76-33.56-37.36-33.56h-.17L291.81,459.02h-4.7L147.96,469.63h-.09Z" fill="#311e69"/><ellipse cx="28.32" cy="25.44" rx="28.32" ry="25.44" transform="translate(133.64 478.77)" fill="#41288c"/><ellipse cx="28.32" cy="25.44" rx="28.32" ry="25.44" transform="translate(121.76 478.77)" fill="#614cd4"/><rect width="209.23" height="22.67" transform="translate(181.93 494.19)" fill="#41288c"/><path d="M350.44,486.03h82.83a11.9,11.9,0,0,1,11.9,11.9v19.81a11.9,11.9,0,0,1-11.9,11.9H350.44V486.02h0Z" fill="#41288c"/><path d="M178.33,365.79H105.14V351.81c0-13.13,11.89-23.81,26.5-23.81h46.69Zm-64.61-7.71h56.03V335.71H131.64c-9.88,0-17.92,7.22-17.92,16.1Z" fill="#614cd4"/><path d="M199.11,365.79h-73.2V351.81c0-13.13,11.89-23.81,26.5-23.81H199.1v37.79Zm-64.61-7.71h56.03V335.71H152.42c-9.88,0-17.92,7.22-17.92,16.1Z" fill="#614cd4"/><path d="M115.53,343.65H238.16V447.49H85.99a13.576,13.576,0,0,1-13.57-13.57V386.76a43.117,43.117,0,0,1,43.1-43.1Z" fill="#ffd140"/><rect width="190.04" height="40.84" transform="translate(147.34 436.05)" fill="#41288c"/><path d="M168.06,350.71c-3.48,19.84-36.88,53.17-46.3,54.53s-11.9-7.05-30.62,6.34c-8.26,5.9-13.94,7.33-18.72,8.13v15.43c0,6.82,6.15,12.35,13.75,12.35H238.15V343.65h-68A31.066,31.066,0,0,0,168.06,350.71Z" fill="#ff9d3b"/><path d="M188.49,447.49H334.14c7.73,0,13.91-10.29,14.22-22.87h-173c1.27,13.25,6.74,22.87,13.14,22.87Z" fill="#614cd4"/><path d="M292.72,291.2H245.26c-4.02,0-7.25,3-7.1,6.61l3.47,85.48c.18,4.41,3.44,8.24,8.13,9.55l66,18.44c4.66,1.3,9.39-1.81,9.41-6.19.14-21.44-1.21-76.84-17.7-105.8a16.868,16.868,0,0,0-14.75-8.09Z" fill="#a9cad1"/><path d="M263.94,349.54s-11.03-.46-12.29,8.54,15.1,34.31,17.16,37.49,6.78,4.49,6.78,4.49l12.53,3.5,27.63,7.72c4.66,1.3,9.39-1.81,9.41-6.19.03-5.02-.02-11.89-.32-19.85s-60.9-35.69-60.9-35.69Z" fill="#614cd4"/><path d="M215.18,296.33h-6.06c-6.78,0-12.28,4.94-12.28,11.03v54.21c0,6.01,4.22,11.36,10.53,13.36l10.36,3.27c4.75,1.5,9.73-1.67,9.73-6.19V307.36c0-6.09-5.5-11.03-12.28-11.03Z" fill="#a9cad1"/><path d="M243.28,324.42V304.91c0-4.74,4.28-8.58,9.55-8.58h32.85c3.71,0,5.18,4.29,2.12,6.18-4.27,2.63-9.58,5.19-14.57,5.61-10.77.91-5.47,5.44-18.17,7.39-5.74.88-6.81,5.4-7.77,9.3-.52,2.13-4.02,1.79-4.02-.4Z" fill="#c5dbe0"/><path d="M274.62,386.19s10.62,10.82,21.34,11.5,34.7-4.53,34.7-4.53,9.08,34.24,22.71,34.46,14.64-17.23,13.38-29.02-13.63-24.65-33.82-26.38-32.94-2.45-32.94-2.45l-25.36,16.42Z" fill="#311e69"/><path d="M200.62,331.86V306.44a6.306,6.306,0,0,1,3.42-5.47l.62-.34a13.7,13.7,0,0,1,6.55-1.65h7.07s-3.53,5.31-7.32,7.53-4.8-1.27-6.06,4.78-.5,18.52-4.29,20.56Z" fill="#c5dbe0"/><path d="M340.73,349.68c-9.66-5.05-24.84-23.48-24.84-23.48l-9.21,18.73s10.43,10.94,23.97,17.5c3-2.26,8.82-7.25,10.07-12.75Z" fill="#614cd4"/><path d="M273.37,387.37c-11.37-29.64-5.28-56.14-1.32-60.37,10.44-11.16,40.25-8.36,46.12,1.75,5.82,10.02-19.65,22.77-.09,40.1,1.9,1.68-4.49,5.17-6.71,6.5-.8.48-9.11-5.64-9.97-5.2-1.95.98.79,13.78-1.33,14.52-9.21,3.25-25.75,5.15-26.68,2.71Z" fill="#ff9d3b"/><path d="M300.32,310.96s2.6-2.9.94-4.62c-4.81-4.99-9.69.93-9.69.93a4.559,4.559,0,0,0-2.75,2.12c-1.48,2.47,1.8,6.65,1.8,6.65s9.23-1.87,9.7-5.06Z" fill="#311e69"/><path d="M301.26,306.34c-.19-.19-.37-.36-.56-.52-.14.05-.29.1-.47.15a18.792,18.792,0,0,1-4.85.83,28.4,28.4,0,0,0-4.05,1.88c-.26.24-2.58,3.43-2.46,4.29a13.707,13.707,0,0,0,1.74,3.07s9.23-1.87,9.7-5.06c0,0,2.6-2.9.94-4.62Z" fill="#1e1240"/><path d="M291.58,313.02l-2.96,9.22c.05,1.28,7.89,4.51,10.06,2.8.63-.5.39-1.72-.3-3.02l-4.05-7.08-2.74-1.92Z" fill="#ff6161"/><path d="M295.14,316.36c-1.58-.18-3.74-.46-3.74-.46a5.938,5.938,0,0,0,2.52,3.84,6.963,6.963,0,0,0,3.86,1.25l-2.65-4.62Z" fill="#311e69"/><path d="M293.46,309.94l-1.95,5.03a3.222,3.222,0,0,0,2.49,3.95,11.087,11.087,0,0,0,4.42.23c1.61-.15,2.47-1.52,2.51-3.42a16.092,16.092,0,0,0-1.15-5.94C298.71,307.05,295,306.74,293.46,309.94Z" fill="#ff6161"/><path d="M296.77,313.68a10.713,10.713,0,0,0,3.21.14s.03,1.1-.72,1.47-2.07-.29-2.49-1.61Z" fill="#fff"/><path d="M298.96,317.27c-1.8-.35-3.22,2.08-6.37-.3a3.962,3.962,0,0,1-1.03-2.11l-.04.11a3.222,3.222,0,0,0,2.49,3.95,11.087,11.087,0,0,0,4.42.23,2.485,2.485,0,0,0,2.09-1.48,9.4,9.4,0,0,1-1.55-.39Z" fill="#ad263d"/><path d="M293.57,311.99a4.015,4.015,0,0,1-.08-.98c.01-.63-.13-1.56-1.18-1.12-1.52.64-1.6,3.69.12,3.97,1.28.21,1.32-1.05,1.14-1.87Z" fill="#ff6161"/><path d="M283.81,331.43c1.91,6.94-7.48,21.87-3.61,29.78,1.92,3.92,34.96,24.44,35.73,30.67s-46.79,1.18-53.74-29.76c-6.79-30.2,11.31-36.29,15.09-36.01s5.59,1.88,6.54,5.32Z" fill="#ff6161"/><path d="M280.13,350.24l-16.56,1.47s8.78,6.65,15.94,7.41a21.361,21.361,0,0,1,.61-8.88Z" fill="#311e69"/><path d="M313.26,331.56l-4.27,15.62a102.4,102.4,0,0,0,9.68,7.97c1.55-6.29-5.41-23.6-5.41-23.6Z" fill="#311e69"/><path d="M262.31,345.33s1.83,9.1,2.16,11.51,4.96,9.67,12.15,14.46,4.16,7.89,8.29,12.8,8.52,4.54,12.08,5.31,11.46,4.76,11.53,4.79c-13.5-.37-41.15-9.05-46.33-32.08a52.227,52.227,0,0,1-1.38-15.65Z" fill="#ad263d"/><path d="M277.27,326.11c3.77.28,5.59,1.88,6.54,5.32,1.33,4.84-2.83,13.58-4.16,21.1-4.11.71-13.22,1.56-18.97-3.42.28-19.01,13.43-23.23,16.59-22.99Z" fill="#614cd4"/><path d="M279.65,352.52c1.33-7.52,5.49-16.26,4.16-21.1-.94-3.44-2.76-5.04-6.54-5.32a12.717,12.717,0,0,0-6.59,2.18c1.73,2.12,4.49,5.99,3.34,8-1.63,2.86-4.73-.15-4.29,7.22a89.308,89.308,0,0,0,.97,9.43,34.549,34.549,0,0,0,8.95-.41Z" fill="#311e69"/><path d="M278.6,353.94s2.92.71,2.76-.86.18-2.42-.87-2.56-13.23,1.46-16.54-.98-3.38-2.68-3.92-1.79-.35,3.28.69,3.79S274.15,354.91,278.6,353.94Z" fill="#a399ff"/><path d="M335.87,364.65c2.21-3.92,3.84-12.59,3.84-12.59l-9.06,10.37c1.7.82,3.44,1.57,5.22,2.23Z" fill="#311e69"/><path d="M318.16,328.75c-2.57-4.42-9.71-7.44-17.81-8.51a11.126,11.126,0,0,1,2.89,7.82c.01,7.1-1.35,9.71-2.87,17.42s-4.64,9.07.2,17.31a67.119,67.119,0,0,0,9.32,12.05c.75.4,1.3.62,1.47.51,2.22-1.33,8.61-4.82,6.71-6.5-19.56-17.32,5.91-30.07.09-40.1Z" fill="#f46822"/><path d="M328.94,361.94s10.43-10.79,10.25-13.15a5.608,5.608,0,0,1,3.4,1.71s-8.42,11.25-10.91,12.41-2.75-.98-2.75-.98Z" fill="#ff9791"/><path d="M311.65,388.06s6.65-2.44,7.31-1.76,2.04,2.8,3.62,3.19,3.36-.07,2.44,1.78a11.214,11.214,0,0,1-5.66,4.82,7.07,7.07,0,0,1-5.07-.89c-2.96-1.82-2.63-7.14-2.63-7.14Z" fill="#ff6161"/><rect width="61.77" height="8.77" transform="translate(349 372.21)" fill="#614cd4"/><path d="M415.3,423.26l-2.5-44.62c-1.76-31.38-9.45-59.87-21.3-78.89h0c-9.45-15.17-20.95-23.37-32.78-23.37h-66.8c11.81,0,23.3,8.2,32.73,23.37h0c11.83,19.02,19.51,47.51,21.27,78.89l2.39,42.71c.06,1.1.07,2.19.05,3.26H241.99c1.27,13.25,6.75,22.87,13.16,22.87H403.97C410.75,447.48,416.03,436.19,415.3,423.26Zm-15.34,1.35H363.27a9.384,9.384,0,0,1-9.26-9.2c-.46-13.89-1.42-39.18-2.36-44.72-4.08-24.06-13.53-69.83-22.36-79.51h48.54s19.12,22.07,27.95,70.74c2.54,13.99,3.25,39.21,3.45,53.02a9.406,9.406,0,0,1-9.27,9.67Z" fill="#614cd4"/><path d="M352.46,319.16c7.94-2.04,5.96-3.17,11.25-5.89s6.4.91,18.53,7.26c4.47,2.34,8.49,1.6,11.52-.66-8-19.51-15.93-28.66-15.93-28.66H329.29c4.11,4.51,8.37,16.87,12.15,31.22,3.26-.3,6.17-2.01,11.02-3.26Z" fill="#c5dbe0"/><rect width="79.25" height="22.87" transform="translate(114.05 424.62)" fill="#614cd4"/><path d="M385.51,544.27H102.34c-22.83,0-41.4-16.68-41.4-37.19v-3.9c0-20.48,18.52-37.14,41.31-37.19L241.4,455.38h5.13L385.6,465.99c22.79.04,41.31,16.71,41.31,37.19v3.9C426.91,527.58,408.34,544.27,385.51,544.27Z" fill="#7966e3"/><path d="M352.58,544.27H69.41c-22.83,0-41.4-16.68-41.4-37.19v-3.9c0-20.48,18.52-37.14,41.31-37.19l139.15-10.61h5.13l139.07,10.61c22.79.04,41.31,16.71,41.31,37.19v3.9c0,20.5-18.57,37.19-41.4,37.19ZM69.41,469.63c-20.6,0-37.36,15.05-37.36,33.56v3.9c0,18.5,16.76,33.56,37.36,33.56H352.58c20.6,0,37.36-15.05,37.36-33.56v-3.9c0-18.5-16.76-33.56-37.36-33.56h-.17L213.35,459.02h-4.7L69.5,469.63h-.09Z" fill="#614cd4"/><path d="M69.41,469.63c-20.6,0-37.36,15.05-37.36,33.56v3.9c0,18.5,16.76,33.56,37.36,33.56H352.58c20.6,0,37.36-15.05,37.36-33.56v-3.9c0-18.5-16.76-33.56-37.36-33.56h-.17L213.35,459.02h-4.7L69.5,469.63h-.09Z" fill="#311e69"/><ellipse cx="28.32" cy="25.44" rx="28.32" ry="25.44" transform="translate(55.18 478.77)" fill="#41288c"/><ellipse cx="28.32" cy="25.44" rx="28.32" ry="25.44" transform="translate(43.3 478.77)" fill="#614cd4"/><rect width="209.23" height="22.67" transform="translate(103.47 494.19)" fill="#41288c"/><path d="M271.99,486.03h82.83a11.9,11.9,0,0,1,11.9,11.9v19.81a11.9,11.9,0,0,1-11.9,11.9H271.99V486.02h0Z" fill="#41288c"/><path d="M711.58,405.17l-19.54-14.41a20.439,20.439,0,0,0-15.05-3.65H641.97l3.06,41.3-11.98,21.36a57.788,57.788,0,0,1-26.64,24.01l-2.89,1.32c-3.67,1.68-2.22,6.66,1.9,6.51l78.9-3.04c20.06-.77,37.25-13.12,42.52-30.52h0c4.76-15.74-1.21-32.53-15.25-42.87Z" fill="#614cd4"/><path d="M625.08,396.27l-30.01,53.5a57.788,57.788,0,0,1-26.64,24.01l-2.89,1.32c-3.67,1.68-2.22,6.66,1.9,6.51l78.9-3.04c20.06-.77,37.25-13.12,42.52-30.52h0c4.76-15.74-1.21-32.53-15.25-42.87l-19.54-14.41c-9.4-6.93-23.52-4.24-28.99,5.51Z" fill="#311e69"/><path d="M348.32,421.35l-2.39-42.71c-1.76-31.38-9.44-59.87-21.27-78.89h0c-9.43-15.17-20.92-23.37-32.73-23.37H199.56c-18.52,0-24.2,19.95-24.2,62.88l-.11,84.11c.03.42.07.83.11,1.24H348.37c.03-1.07.02-2.16-.05-3.26ZM227.46,372.01c0,4.53-4.98,7.7-9.73,6.19l-10.36-3.27c-6.31-1.99-10.53-7.35-10.53-13.36V307.36c0-6.09,5.5-11.03,12.28-11.03h6.06c6.78,0,12.28,4.94,12.28,11.03v64.65Zm97.71,33.07c-.03,4.38-4.76,7.49-9.41,6.19l-66-18.44c-4.69-1.31-7.95-5.14-8.13-9.55l-3.47-85.48c-.15-3.61,3.07-6.61,7.1-6.61h47.46a16.88,16.88,0,0,1,14.75,8.09C323.97,328.24,325.31,383.64,325.17,405.08Z" fill="#a399ff"/><rect width="93.22" height="8.77" transform="translate(235.87 372.21)" fill="#a399ff"/><path d="M350.34,410.61s17.16-20.73,35.34-24.42,23.56-1.2,23.56-1.2,3.68,19.27,1.55,31.74-.62,17-12.74,16.1-41.39-3.85-41.39-3.85l-6.31-18.36Z" fill="#614cd4"/><path d="M519.21,428.82c5.67,4.53-.98,17.33,6.05,25.39,8.36,9.57,17.23,26.25,17.25,33.64s-23.61-10.19-35.32-24.68c-10.83-13.41-10.41-31.21-8.95-35.81s15.07-3.23,20.96,1.47Z" fill="#ad263d"/><path d="M582.42,563.18a8.892,8.892,0,0,0,6.2-1.17l.08-.05,16.45-11.65a7.046,7.046,0,0,1,8.93.66l21.55,20.61a1.386,1.386,0,0,0,1.92-2L616,548.97a9.826,9.826,0,0,0-12.45-.92l-16.41,11.62a6.2,6.2,0,0,1-9.36-4.93l-2.44-38.54a13.558,13.558,0,0,0-8.38-11.63l-34-20.59a1.388,1.388,0,0,0-1.05,2.57l34,20.59a10.747,10.747,0,0,1,6.66,9.24l2.44,38.54a9,9,0,0,0,7.4,8.28Z" fill="#1e1240"/><path d="M630.06,561.58l-.09-.78,4.68-.39q.525-.06,1.05-.09h.14a17.038,17.038,0,0,1,3.95.25,17.762,17.762,0,0,1-.67,35.08h-.04a18.269,18.269,0,0,1-1.96.17l-3.09.25-.05-.46c-.14-.02-.28-.04-.43-.07a17.766,17.766,0,0,1-3.49-33.98Z" fill="#311e69"/><circle cx="17.77" cy="17.77" r="17.77" transform="translate(607.688 587.041) rotate(-64.69)" fill="#1e1240"/><path d="M619.83,576.47a11.671,11.671,0,1,0,13.54-9.44A11.667,11.667,0,0,0,619.83,576.47Z" fill="#ffd140"/><path d="M558.99,505.57l14.91-3.28,98.96,17.68-20.22,22.99a26.346,26.346,0,0,1-14.99,8.51h-.05c-.11.03-.23.05-.34.07l-9.15,1.61-4.01-2.76-33.61-9.26a16.267,16.267,0,0,1-11.66-12.66l-2-10.62-17.84-12.28Z" fill="#614cd4"/><path d="M497.49,468.31s-7.04,43.55-16.56,57.07c-8.16,11.6-31.89,35.81-52.75,33.34-15.47-1.83,1.39-16.8,7.06-23.37,3.13-3.62,22.86-21.94,24.55-29.94.94-4.46,3.21-38,7.6-43.79s30.09,6.69,30.09,6.69Z" fill="#f46822"/><path d="M512.67,465.21s13.13,43.48,11.84,58.22-8.2,59.74-14.62,60.14-13.59-2.3-14.58-6.81c-1.73-7.84,3.27-53.23,2.17-56.37s-12.53-46.71-9.39-55.18,24.57,0,24.57,0Z" fill="#f46822"/><path d="M512.67,465.21a64.8,64.8,0,0,0-13.02-3.48c1.12,9.36,2.72,20.07,4.61,25.22,3.74,10.22,13.18,28.45,8.79,32.85s-6.35,6.8-4.07,13.74-1.07,27.23-1.07,27.23-4.56,11.7-6.13,21.72a21.292,21.292,0,0,0,8.1,1.09c6.42-.4,13.34-45.4,14.62-60.14s-11.84-58.22-11.84-58.22Z" fill="#c63f20"/><path d="M520.1,493.07c-1.1-4.72-2.28-9.33-3.36-13.4l-.1-.07-22.21,12.7s16.18,3.27,25.67.78Z" fill="#311e69"/><path d="M445.51,524.74c-4.65,4.9-8.95,9.07-10.27,10.6-.13.15-.27.31-.41.47,1.95,7.51,8.19,14.57,12.65,18.86a72.752,72.752,0,0,0,12.07-7.52c-8.5-5.51-12.62-17.37-14.04-22.4Z" fill="#ffd140"/><path d="M480.93,525.38c9.51-13.52,16.56-57.07,16.56-57.07a128.846,128.846,0,0,0-16.33-6.46c-2.77,7.76-5.9,18.96-4.76,27.52,1.94,14.53,2.9,20.83-2.79,25.6s-16.57,16.9-24.57,24.74-13.61,4.34-22.21,11.28c-1.88,1.52-3.48,2.96-4.84,4.29.53,1.73,2.37,2.99,6.2,3.44,20.85,2.47,44.58-21.74,52.75-33.34Z" fill="#c63f20"/><path d="M451,537.75c-.67.67-1.33,1.33-1.97,1.95a21.265,21.265,0,0,1-9.62,5.61,62.12,62.12,0,0,0,8.06,9.35c1.04-.5,2.07-1.04,3.09-1.61l.06-.03q3-1.68,5.87-3.68c.09-.06.19-.13.28-.19.93-.65,1.86-1.32,2.77-2.01a28.469,28.469,0,0,1-8.55-9.39Z" fill="#f46822"/><path d="M513.13,409.39c6.15,3.4,7.14,19.66,10.16,27.09a29.656,29.656,0,0,1-13.36,12.49c-1.49-3-6.87-9.5-8.38-12.52-5.68-11.32,2.71-31.97,11.58-27.07Z" fill="#311e69"/><path d="M519.21,486.65c-5.18-19.65-4.67-42.99-3.51-49.54,1.08-6.11,5.27-23.24-4.12-29.74-16.37-11.33-41.83-6.16-47.75,8.24-1.94,4.73,1.7,17.89,4.23,25.84a19.687,19.687,0,0,1-.21,12.62c-2.85,7.95-7.37,21.98-8.3,33.26,6.04,3.8,36.69,11.83,59.66-.69Z" fill="#ff9d3b"/><path d="M657.96,523.25,559,505.57l4.94,26.18a16.251,16.251,0,0,0,11.66,12.66l37.68,10.38a26.424,26.424,0,0,0,24.47-8.55l20.22-22.99Z" fill="#311e69"/><path d="M463.95,466.06a141.862,141.862,0,0,0,18.77,4.91l.55-12.53a71.609,71.609,0,0,1-15.7-3.54c-1.09,3.08-2.38,6.94-3.62,11.16Z" fill="#f0f8fa"/><path d="M515.7,437.11c1.08-6.11,5.27-23.24-4.12-29.74a35.34,35.34,0,0,0-14.96-5.75c.46,2.89,5.79,8.37,6.49,12.73,1.88,11.72-2.22,40.28-3.41,48.31-.67,4.54,1.1,18.21,2.96,29.63a54.331,54.331,0,0,0,16.54-5.65c-5.18-19.65-4.67-42.99-3.51-49.54Z" fill="#f46822"/><path d="M672.86,519.97l-14.9,3.28-98.97-17.68,14.91-3.28Z" fill="#b1a9ff"/><path d="M638.76,582.34l8.76,1.57a8.727,8.727,0,0,0,4.87-.53l2.27-.89a1.387,1.387,0,0,0-1.02-2.58l-2.3.9a5.9,5.9,0,0,1-3.34.37l-8.76-1.57a29.285,29.285,0,0,1-15.14-7.69l-21.55-20.61a9.826,9.826,0,0,0-12.45-.92l-16.41,11.62a6.2,6.2,0,0,1-9.36-4.93l-2.44-38.54a13.558,13.558,0,0,0-8.38-11.63l-.19-.06-83.64-20.66a1.386,1.386,0,1,0-.67,2.69l83.54,20.63a10.771,10.771,0,0,1,6.57,9.2l2.44,38.54a8.978,8.978,0,0,0,13.6,7.12l.08-.05,16.45-11.65a7.046,7.046,0,0,1,8.93.66l21.55,20.61a32.088,32.088,0,0,0,16.57,8.42Z" fill="#311e69"/><path d="M478.4,416.9c2.31,14.88-7.38,29.69-7.02,39.78.31,8.68,13.7,29.89,10.97,32.96-4.97,5.59-17.38-8.92-21.74-15.85-13.38-21.24-2.14-42.51,2.08-52.55,5.56-13.23,13.96-15.68,15.72-4.34Z" fill="#ff6161"/><path d="M478.4,416.9c-1.09-7.02-4.72-8.75-8.65-5.91-1.1,6.66-3.62,20.94-5.8,25.03-2.87,5.39-2.99,17.98,0,24.7s9.12,13.24,12.13,18.45a28.961,28.961,0,0,0,6.52,8.06c-1.16-6.59-10.95-23.13-11.21-30.54-.36-10.09,9.33-24.9,7.02-39.78Z" fill="#ad263d"/><path d="M477.28,432.62c-.76,3.13-1.72,6.18-2.64,9.1-4.06-1.09-12.29-3.65-13.08-6.62C460.72,431.93,472.58,432.34,477.28,432.62Z" fill="#311e69"/><path d="M476.39,489.36s1.38,5.08,5.65,6.75c3.79,1.48,7.39,1.01,8.33-1.44.78-2.04-5.15-3.03-6.09-4.88s-1.68-5.17-4.19-4.45-4.88,2.02-3.7,4.04Z" fill="#ff6161"/><path d="M481.96,485.95s4.06.96,5.61,2.12,3.61,2.14,2.88,3.24c-.2.3-1.56-.42-2.98-.74-1.11-.25-3.2,1.79-4.67.79s-2.91-5.85-.84-5.41Z" fill="#ff6161"/><path d="M462.03,420.27c7.31-14.82,14.6-14.71,16.36-3.37.96,6.16-.08,14.04-1.63,21.16-4.03-.14-13.09-.7-19.62-5.43a113.727,113.727,0,0,1,4.89-12.36Z" fill="#614cd4"/><path d="M539.09,481.24s5.49,5.97,5.34,8.19.57,3.36-.83,3.24-.75-3.11-1.77-3.31-4.04-.56-4.99-1.93S537.59,480.83,539.09,481.24Z" fill="#ad263d"/><path d="M501.77,417.2s-16.82-14.15-14.05-15.11,12.32.51,13.13,1.98.92,13.13.92,13.13Z" fill="#614cd4"/><path d="M541.04,493.57s2.57-1.53.91-2.31a21.974,21.974,0,0,0-4.31-1.27,5.2,5.2,0,0,0-2.94-1.61c-1.56-.1-1.68,2.21,1.23,3.54s4.39,2.16,5.11,1.65Z" fill="#ad263d"/><path d="M653.21,522.4s-1.8-25.9-10.02-29.55c-10.16-4.5-15.88-.08-15.88-.08s-13.39-31.5-30.51-27.35-27.74,41.94-27.74,41.94l84.15,15.03Z" fill="#7098a1"/><path d="M634.66,515.65c4.92.27,13.56,1.59,17.79.01.56,3.91.75,6.74.75,6.74l-84.15-15.03s10.62-37.78,27.74-41.94a13.139,13.139,0,0,1,3.91-.35,6.777,6.777,0,0,0-2.64,5.07c-.06,4.92,8.41,2.21,2.51,12.89s2.41,18.04,8.28,20.03,7.65,1.84,10.56,5.29a22.335,22.335,0,0,0,15.25,7.31Z" fill="#7da3ab"/><path d="M639.86,491.64a2.778,2.778,0,0,0-1.5,1.31c-1.15,2.49-.51,1.55-4.34,2.63s-7.74,1.9-7.7.39a8.275,8.275,0,0,1,.98-3.19s4.48-3.46,12.56-1.14Z" fill="#7da3ab"/><path d="M512.85,589.85a2.417,2.417,0,0,1-1.11-3.21c1.78-3.68,5.2-10.87,4.81-15.09-.49-5.29-15.62.81-18.15,4.64-1.27,1.93-.31,6.75.48,10.25a14.686,14.686,0,0,1,.09,5.87c-.24,1.29-.27,2.73.59,3.21,3.2,1.82,22.52,1.93,22.29.06-.1-.85-5.75-4.1-9.01-5.73Z" fill="#311e69"/><path d="M423.41,563.1a2.406,2.406,0,0,1,2.2-2.59c4.07-.35,12-1.08,15.43-3.57,4.3-3.12-8.68-13.02-13.26-13.23-2.31-.11-5.96,3.19-8.57,5.65a14.6,14.6,0,0,1-5,3.07c-1.23.45-2.48,1.16-2.46,2.15.07,3.68,9.85,20.34,11.34,19.19.67-.52.59-7.04.32-10.67Z" fill="#311e69"/><path d="M563.93,531.75l-3.59-19.02a11.229,11.229,0,0,1,1.37-.5c10.27-3.01,11.9,13.78,19.61,21.59s19.51,4.48,33.35,1.39,8.2,3.56,16.17,7.55a12.369,12.369,0,0,0,9.38.66l-2.49,2.83a26.4,26.4,0,0,1-24.47,8.55l-37.68-10.38a16.267,16.267,0,0,1-11.66-12.66Z" fill="#1e1240"/><path d="M490.93,387.76s-1.81,5.01,1.66,8.47c1.86,1.85,7.16-5.35,6.04-8.09s-7.7-.39-7.7-.39Z" fill="#1e1240"/><path d="M493.38,391.71l-4.44,10.79c-.12,1.6,8.2,6.63,10.86,4.77.78-.54.68-2.09.09-3.8l-3.53-9.34-2.98-2.42Z" fill="#ff6161"/><path d="M497.07,396c-1.74-.43-4.12-1.05-4.12-1.05a7.62,7.62,0,0,0,2.28,5.1,7.327,7.327,0,0,0,4.15,2.05Z" fill="#311e69"/><path d="M496.11,387.78l-2.9,6.03a4.088,4.088,0,0,0,2.22,5.24,11.209,11.209,0,0,0,4.92.85c1.83.02,2.98-1.59,3.29-3.94a22.212,22.212,0,0,0-.44-7.55c-.81-3.55-4.92-4.41-7.09-.62Z" fill="#ff6161"/><path d="M495.45,390.39c.83-.04.25.51.84,1.45s1.15.92,3.92.28a5.781,5.781,0,0,1,3.54.19c.07,1.13.92,2.78.75,4.05-.31,2.36-2.11,4.67-3.94,4.65a12.462,12.462,0,0,1-5.25-1.38c-2.04-.85-2.9-3.77-2.1-5.83l1.56-3.25A2.62,2.62,0,0,1,495.45,390.39Z" fill="#311e69"/><path d="M493.21,393.8l.32-.68a6.212,6.212,0,0,1,1.83,1.93c.63,1.43,3.71,3.79,4.64,3.83s1.31-.49,2.31-.2c.55.16,1.26-.34,1.78-.82-.7,1.74-2.11,3.16-3.54,3.14a12.462,12.462,0,0,1-5.25-1.38c-2.04-.85-2.9-3.77-2.1-5.83Z" fill="#1e1240"/><path d="M499.47,393.33a10.993,10.993,0,0,0,3.62-.3s.21,1.37-.57,1.94S500.16,394.91,499.47,393.33Z" fill="#fff"/><path d="M497.9,385.74s-1.86,2.13-1.88,3.42.08,1.83-.38,2.12-1.55-.84-1.35-2.14,1.17-4.49,3.61-3.39Z" fill="#1e1240"/><path d="M495.13,390.84a6.242,6.242,0,0,1-.22-1.22c-.07-.78-.36-1.93-1.47-1.26-1.62.98-1.02,5.14.95,5.29C495.85,393.76,495.44,391.83,495.13,390.84Z" fill="#ff6161"/><path d="M493.93,387.98l-3.19,2.91c-.2.18-.47.61-.39.88l.4,1.27,4.69-4.75-1.5-.31Z" fill="#e8e8e8"/><path d="M503.98,384.12c-.11-.3-.23-.61-.32-.92-.32-1.04-1.47-3.48-5.23-3.98-.5-.07-1.01-.84-1.59-.9-2.51-.25-2.93,1.28-3.74,1.55-2.29.79-2.72,1.83-2.82,4.84-.1,2.91.6,3.35.6,3.35s5.54.85,9.06.09c3.25-.7,4.67-2.32,4.04-4.04Z" fill="#ff9d3b"/><path d="M490.28,384.72c.1-3.01.53-4.05,2.82-4.84a1.138,1.138,0,0,0,.32-.18,5.759,5.759,0,0,1,2.61,1.45,18.124,18.124,0,0,1,2.58,5.5c.06.35-.68,1.1-1.53,1.81a38.858,38.858,0,0,1-6.2-.4s-.7-.44-.6-3.35Z" fill="#f46822"/><path d="M503.88,385.23c.3-.55,4.28,2.18,1.45,3.04a20.588,20.588,0,0,1-11.23.13S502.38,387.98,503.88,385.23Z" fill="#ffcc80"/><path d="M518.46,562.05c.88-4.02,1.7-8.28,2.43-12.51-7.74.97-18.7.83-24.96.63-.27,3.95-.52,7.86-.7,11.46,8.2,1.44,17.39.98,23.22.41Z" fill="#ffd140"/><path d="M507.91,560.76s-.27.68-.68,1.84c4.24.02,8.19-.25,11.23-.54h0c.65-2.99,1.27-6.1,1.85-9.24a1.423,1.423,0,0,1,.04-.2c.19-1.02.37-2.05.55-3.07-3.47.43-7.59.64-11.64.73-.55,5.71-1.34,10.48-1.34,10.48Z" fill="#f46822"/><path d="M465.47,436.47a49.349,49.349,0,0,0,11.3,1.59c1.55-7.12,2.59-15,1.63-21.16-.72-4.62-2.36-7.38-4.54-8.02.62,2.43.94,5.51-.26,8.05-2.38,5.05-5.31,7.98-6.45,11.88a64.19,64.19,0,0,0-1.69,7.65Z" fill="#311e69"/><rect width="4.83" height="88.02" transform="translate(223.89 492.35)" fill="#614cd4"/><rect width="4.83" height="88.02" transform="translate(219.06 492.35)" fill="#958aff"/><rect width="26.91" height="8.65" transform="translate(212.85 571.72)" fill="#614cd4"/><rect width="4.83" height="8.65" transform="translate(208.02 571.72)" fill="#958aff"/><rect width="124.49" height="8.65" transform="translate(226.31 534.83)" fill="#614cd4"/><rect width="125.25" height="13.07" transform="translate(226.31 497)" fill="#ffb03b"/><path d="M232.33,510.07h-4.58L234.14,497h4.58Z" fill="#1e1240"/><path d="M245.94,510.07h-4.58L247.75,497h4.58Z" fill="#1e1240"/><path d="M259.54,510.07h-4.57L261.36,497h4.57Z" fill="#1e1240"/><path d="M273.15,510.07h-4.58L274.96,497h4.58Z" fill="#1e1240"/><path d="M286.75,510.07h-4.57L288.57,497h4.58Z" fill="#1e1240"/><path d="M300.36,510.07h-4.58L302.17,497h4.58Z" fill="#1e1240"/><path d="M313.97,510.07h-4.58L315.78,497h4.58Z" fill="#1e1240"/><path d="M327.57,510.07h-4.58l6.4-13.07h4.57Z" fill="#1e1240"/><path d="M341.18,510.07H336.6L342.99,497h4.58Z" fill="#1e1240"/><rect width="4.83" height="88.02" transform="translate(353.85 492.35)" fill="#614cd4"/><rect width="4.83" height="88.02" transform="translate(349.01 492.35)" fill="#958aff"/><rect width="26.91" height="8.65" transform="translate(342.81 571.72)" fill="#614cd4"/><rect width="4.83" height="8.65" transform="translate(337.98 571.72)" fill="#958aff"/></svg>