<svg xmlns="http://www.w3.org/2000/svg" width="461.946" height="345.1" viewBox="0 0 461.946 345.1"><g transform="translate(-1786.778 -1217.922)"><g transform="translate(1758.768 1043)"><path d="M632.177,201.248,642.958,158.3c2.218-4.95,7.3-6.578,11.142-3.562l6.013,4.718c2.608,1.91,4.189,5.748,4.056,9.85l-9.921,179.176c-.231,4.875-3.683,8.627-7.549,7.991-2.568-.421-5.379-2.768-7.673-9.346a10.114,10.114,0,0,1-.486-2.206L624.32,213.643l7.851-12.4Z" transform="translate(-189.312 21.699)" fill="#ffd140"/><path d="M652.916,210.543h0c-2.517-4.918-7.711-7.295-12.6-5.756l-4.708,1.478-2.072,4.114-9.206,12.965L626.1,237.9l21.417-9.819c6.175-2.826,8.706-11.072,5.4-17.537Z" transform="translate(-148.875 -59.075) rotate(8)" fill="#ff9d3b"/><path d="M374.48,292.169l31.386-36.088a80.661,80.661,0,0,1,28.7-20.5h0a102.356,102.356,0,0,1,19.7-6.293L609.209,196.27c6.161-1.315,12.718.716,15.9,4.919h0c4.178,5.525.974,12.571-6.811,14.986L497.927,253.54c-26.585,8.25-48.817,22.933-63.2,41.738l-39.759,51.968L374.5,292.154Z" transform="translate(-158 33)" fill="#ffd140"/><path d="M425.326,276.065,385.09,317.9l11.1,29.379,39.547-50.851c14.317-18.408,36.421-32.769,62.864-40.842L618.328,219.02c6.242-1.908,9.516-6.75,8.389-11.39L484.577,243.4c-23.868,6.006-44.593,17.432-59.25,32.675Z" transform="translate(-158 33)" fill="#ff9d3b"/><path d="M377.83,291.2H329.29c8.82,9.67,18.28,55.45,22.36,79.51.94,5.54,1.89,30.83,2.36,44.72a9.39,9.39,0,0,0,9.26,9.2h36.69a9.406,9.406,0,0,0,9.27-9.67c-.2-13.8-.92-39.02-3.45-53.02-8.82-48.67-27.95-70.74-27.95-70.74Z" transform="translate(-136 1)" fill="#a9cad1"/><path d="M460.07,244.17a4.57,4.57,0,0,0-2.56,6.33,5.38,5.38,0,0,0,4.81,2.75,5.709,5.709,0,0,0,2.24-.45l113.73-47.72-6-7.99L460.08,244.17Z" transform="matrix(0.999, -0.052, 0.052, 0.999, -209.022, 63.225)" fill="#ffd140"/><path d="M669.72,161.45a5.583,5.583,0,0,0-7.05-2.3l-90.4,37.93,6,7.99,88.88-37.3a4.57,4.57,0,0,0,2.56-6.33Z" transform="matrix(0.999, -0.052, 0.052, 0.999, -209.022, 63.225)" fill="#a399ff"/><path d="M374.14,356.35s.27-2.15,3.52-3.62,4.1-.02,6.02.81,1.67-.55,1.93.83-2.78,1.26-3.71,1.07-1.43,1.14-3.56,2.43-4.2-1.52-4.2-1.52Z" transform="translate(-145.241 4.206)" fill="#ad263d"/><path d="M314.366,326.2s14.43,22.357,22.283,25.895c7.252,3.271,26.99.352,32,6.522s-21.782,15.025-35.886,9.3-26.08-21.771-26.08-21.771l7.686-19.959Z" transform="translate(-136 1)" fill="#ad263d"/><path d="M359.09,365.77l23.56-11.34a1.562,1.562,0,0,1,2.31,1.64l-3.42,11.72a2.644,2.644,0,0,0,.39,2.29l15.24,21.99,3.3,29-17.24,2.47-8.72-50.56a3.09,3.09,0,0,0-2.62-2.43l-12.33-2.09a1.4,1.4,0,0,1-.46-2.69Z" transform="translate(-140.874 3.322)" fill="#311e69"/><path d="M361.374,520.022H167.7c-15.614,0-28.315-12.13-28.315-27.045v-2.836c0-14.893,12.666-27.009,28.253-27.045l95.169-7.716h3.509l95.115,7.716c15.587.029,28.253,12.152,28.253,27.045v2.836C389.689,507.885,376.988,520.022,361.374,520.022Z" fill="#7966e3"/><path d="M337.628,520.022H135.945c-16.26,0-29.485-12.13-29.485-27.045v-2.836c0-14.893,13.19-27.009,29.421-27.045l99.1-7.716h3.654l99.046,7.716c16.231.029,29.421,12.152,29.421,27.045v2.836c0,14.908-13.226,27.045-29.485,27.045ZM135.952,465.743c-14.671,0-26.608,10.945-26.608,24.405v2.836c0,13.453,11.937,24.405,26.608,24.405H337.628c14.671,0,26.608-10.945,26.608-24.405v-2.836c0-13.453-11.937-24.405-26.608-24.405h-.121l-99.039-7.716H235.12l-99.1,7.716Z" fill="#614cd4"/><path d="M137.051,466.85c-14.64,0-26.551,11.107-26.551,24.768V494.5c0,13.654,11.911,24.768,26.551,24.768H338.3c14.64,0,26.551-11.107,26.551-24.768v-2.878c0-13.654-11.911-24.768-26.551-24.768h-.121l-98.829-7.831h-3.34l-98.892,7.831h-.064Z" transform="translate(0 -1.027)" fill="#311e69"/><path d="M350.44,486.026h72.83c5.779,0,10.463,3.294,10.463,7.358v12.25c0,4.064-4.685,7.359-10.463,7.359H350.44V486.02h0Z" transform="translate(-83.898 -7.489)" fill="#41288c"/><path d="M92.408,343.65h56.858V447.49H78.712c-3.474,0-6.29-6.077-6.292-13.57V386.76c0-23.8,8.949-43.091,19.984-43.1Z" transform="translate(3.599 -21.88)" fill="#ffd140"/><rect width="158.095" height="40.84" transform="translate(106.46 434.96)" fill="#41288c"/><path d="M116.761,350.71c-1.613,19.84-17.1,53.17-21.466,54.53s-5.517-7.05-14.2,6.34c-3.83,5.9-6.463,7.33-8.679,8.13v15.43c0,6.82,2.851,12.35,6.375,12.35h70.461V343.65H117.73A60.577,60.577,0,0,0,116.761,350.71Z" transform="translate(3.599 -21.88)" fill="#ff9d3b"/><path d="M184.189,447.49h97.943c5.2,0,9.354-10.29,9.562-22.87H175.36c.854,13.25,4.532,22.87,8.836,22.87Z" transform="translate(-79.335 1)" fill="#614cd4"/><path d="M287.5,291.2H244.58a6.6,6.6,0,0,0-6.421,6.985l3.138,90.326a10.922,10.922,0,0,0,7.352,10.091l59.684,19.485a6.619,6.619,0,0,0,8.509-6.541c.127-22.655-1.094-81.2-16.006-111.8-2.826-5.422-7.907-8.678-13.338-8.549Z" transform="translate(-108.677 -2.578)" fill="#a9cad1"/><path d="M262.988,349.54s-10.18-.46-11.343,8.54,13.937,34.31,15.838,37.49,6.258,4.49,6.258,4.49l11.565,3.5,25.5,7.72a6.665,6.665,0,0,0,8.685-6.19c.028-5.02-.018-11.89-.3-19.85s-56.209-35.69-56.209-35.69Z" transform="translate(-130.332 1)" fill="#614cd4"/><path d="M243.28,324.42V304.91c0-4.74,4.28-8.58,9.55-8.58h32.85c3.71,0,5.18,4.29,2.12,6.18-4.27,2.63-9.58,5.19-14.57,5.61-10.77.91-5.47,5.44-18.17,7.39-5.74.88-6.81,5.4-7.77,9.3-.52,2.13-4.02,1.79-4.02-.4Z" transform="translate(-108.677 -2.578)" fill="#c5dbe0"/><path d="M274.62,386.19s10.62,10.82,21.34,11.5,34.7-4.53,34.7-4.53,9.08,34.24,22.71,34.46,14.64-17.23,13.38-29.02-13.63-24.65-33.82-26.38-32.94-2.45-32.94-2.45l-25.36,16.42Z" transform="translate(-136 1)" fill="#311e69"/><path d="M340.73,349.68c-9.66-5.05-24.84-23.48-24.84-23.48l-9.21,18.73s10.43,10.94,23.97,17.5c3-2.26,8.82-7.25,10.07-12.75Z" transform="translate(-136 1)" fill="#614cd4"/><path d="M273.37,387.37c-11.37-29.64-5.28-56.14-1.32-60.37,10.44-11.16,40.25-8.36,46.12,1.75,5.82,10.02-19.65,22.77-.09,40.1,1.9,1.68-4.49,5.17-6.71,6.5-.8.48-9.11-5.64-9.97-5.2-1.95.98.79,13.78-1.33,14.52-9.21,3.25-25.75,5.15-26.68,2.71Z" transform="translate(-136 1)" fill="#ff9d3b"/><path d="M300.32,310.96s2.6-2.9.94-4.62c-4.81-4.99-9.69.93-9.69.93a4.559,4.559,0,0,0-2.75,2.12c-1.48,2.47,1.8,6.65,1.8,6.65s9.23-1.87,9.7-5.06Z" transform="translate(-136 1)" fill="#311e69"/><path d="M301.26,306.34c-.19-.19-.37-.36-.56-.52-.14.05-.29.1-.47.15a18.793,18.793,0,0,1-4.85.83,28.4,28.4,0,0,0-4.05,1.88c-.26.24-2.58,3.43-2.46,4.29a13.707,13.707,0,0,0,1.74,3.07s9.23-1.87,9.7-5.06c0,0,2.6-2.9.94-4.62Z" transform="translate(-136 1)" fill="#1e1240"/><path d="M291.58,313.02l-2.96,9.22c.05,1.28,7.89,4.51,10.06,2.8.63-.5.39-1.72-.3-3.02l-4.05-7.08-2.74-1.92Z" transform="translate(-136 1)" fill="#ff6161"/><path d="M295.14,316.36c-1.58-.18-3.74-.46-3.74-.46a5.938,5.938,0,0,0,2.52,3.84,6.963,6.963,0,0,0,3.86,1.25l-2.65-4.62Z" transform="translate(-136 1)" fill="#311e69"/><path d="M293.46,309.94l-1.95,5.03a3.222,3.222,0,0,0,2.49,3.95,11.087,11.087,0,0,0,4.42.23c1.61-.15,2.47-1.52,2.51-3.42a16.092,16.092,0,0,0-1.15-5.94C298.71,307.05,295,306.74,293.46,309.94Z" transform="translate(-136 1)" fill="#ff6161"/><path d="M296.77,313.68a10.714,10.714,0,0,0,3.21.14s.03,1.1-.72,1.47-2.07-.29-2.49-1.61Z" transform="translate(-136 1)" fill="#fff"/><path d="M298.96,317.27c-1.8-.35-3.22,2.08-6.37-.3a3.962,3.962,0,0,1-1.03-2.11l-.04.11a3.222,3.222,0,0,0,2.49,3.95,11.087,11.087,0,0,0,4.42.23,2.485,2.485,0,0,0,2.09-1.48,9.4,9.4,0,0,1-1.55-.39Z" transform="translate(-136 1)" fill="#ad263d"/><path d="M293.57,311.99a4.016,4.016,0,0,1-.08-.98c.01-.63-.13-1.56-1.18-1.12-1.52.64-1.6,3.69.12,3.97,1.28.21,1.32-1.05,1.14-1.87Z" transform="translate(-136 1)" fill="#ff6161"/><path d="M283.81,331.43c1.91,6.94-7.48,21.87-3.61,29.78,1.92,3.92,34.96,24.44,35.73,30.67s-46.79,1.18-53.74-29.76c-6.79-30.2,11.31-36.29,15.09-36.01s5.59,1.88,6.54,5.32Z" transform="translate(-136 1)" fill="#ff6161"/><path d="M280.13,350.24l-16.56,1.47s8.78,6.65,15.94,7.41a21.361,21.361,0,0,1,.61-8.88Z" transform="translate(-136 1)" fill="#311e69"/><path d="M313.26,331.56l-4.27,15.62a102.4,102.4,0,0,0,9.68,7.97c1.55-6.29-5.41-23.6-5.41-23.6Z" transform="translate(-136 1)" fill="#311e69"/><path d="M262.31,345.33s1.83,9.1,2.16,11.51,4.96,9.67,12.15,14.46,4.16,7.89,8.29,12.8,8.52,4.54,12.08,5.31,11.46,4.76,11.53,4.79c-13.5-.37-41.15-9.05-46.33-32.08a52.227,52.227,0,0,1-1.38-15.65Z" transform="translate(-136 1)" fill="#ad263d"/><path d="M277.27,326.11c3.77.28,5.59,1.88,6.54,5.32,1.33,4.84-2.83,13.58-4.16,21.1-4.11.71-13.22,1.56-18.97-3.42.28-19.01,13.43-23.23,16.59-22.99Z" transform="translate(-136 1)" fill="#614cd4"/><path d="M279.65,352.52c1.33-7.52,5.49-16.26,4.16-21.1-.94-3.44-2.76-5.04-6.54-5.32a12.717,12.717,0,0,0-6.59,2.18c1.73,2.12,4.49,5.99,3.34,8-1.63,2.86-4.73-.15-4.29,7.22a89.315,89.315,0,0,0,.97,9.43,34.549,34.549,0,0,0,8.95-.41Z" transform="translate(-136 1)" fill="#311e69"/><path d="M278.6,353.94s2.92.71,2.76-.86.18-2.42-.87-2.56-13.23,1.46-16.54-.98-3.38-2.68-3.92-1.79-.35,3.28.69,3.79S274.15,354.91,278.6,353.94Z" transform="translate(-136 1)" fill="#a399ff"/><path d="M335.87,364.65c2.21-3.92,3.84-12.59,3.84-12.59l-9.06,10.37c1.7.82,3.44,1.57,5.22,2.23Z" transform="translate(-136 1)" fill="#311e69"/><path d="M318.16,328.75c-2.57-4.42-9.71-7.44-17.81-8.51a11.126,11.126,0,0,1,2.89,7.82c.01,7.1-1.35,9.71-2.87,17.42s-4.64,9.07.2,17.31a67.12,67.12,0,0,0,9.32,12.05c.75.4,1.3.62,1.47.51,2.22-1.33,8.61-4.82,6.71-6.5-19.56-17.32,5.91-30.07.09-40.1Z" transform="translate(-136 1)" fill="#f46822"/><path d="M328.94,361.94s10.43-10.79,10.25-13.15a5.608,5.608,0,0,1,3.4,1.71s-8.42,11.25-10.91,12.41-2.75-.98-2.75-.98Z" transform="translate(-136 1)" fill="#ff9791"/><path d="M311.65,388.06s6.65-2.44,7.31-1.76,2.04,2.8,3.62,3.19,3.36-.07,2.44,1.78a11.214,11.214,0,0,1-5.66,4.82,7.07,7.07,0,0,1-5.07-.89c-2.96-1.82-2.63-7.14-2.63-7.14Z" transform="translate(-136 1)" fill="#ff6161"/><rect width="54.77" height="8.77" transform="translate(213 373.21)" fill="#614cd4"/><path d="M387.613,423.26l-2.1-44.62c-1.479-31.38-7.94-59.87-17.9-78.89h0c-7.94-15.17-17.6-23.37-27.543-23.37H283.943c9.923,0,19.578,8.2,27.5,23.37h0c9.94,19.02,11.2,47.51,12.677,78.89l-2.9,44.62c.05,1.1.017,3.325,0,4.395L241.99,424.61c1.067,13.25,5.672,22.87,11.058,22.87H378.093C383.79,447.48,388.226,436.19,387.613,423.26Zm-12.889,1.35H343.9c-4.254-.066-7.7-4.137-7.781-9.2-.387-13.89-1.193-39.18-1.983-44.72-3.428-24.06-11.369-69.83-18.788-79.51h40.786s16.066,22.07,23.485,70.74c2.134,13.99,2.731,39.21,2.9,53.02a10.461,10.461,0,0,1-2.195,6.774,7.376,7.376,0,0,1-5.594,2.9Z" transform="translate(-114.302 1)" fill="#614cd4"/><path d="M348.618,317.871c6.623-1.946,4.972-3.024,9.385-5.618s5.339.868,15.457,6.925c3.729,2.232,7.082,1.526,9.61-.63-6.673-18.61-13.289-27.338-13.289-27.338H329.29c3.429,4.3,6.982,16.092,10.135,29.78,2.719-.286,5.147-1.917,9.193-3.11Z" transform="translate(-127.91 1)" fill="#c5dbe0"/><path d="M311.9,520.022H92.951c-17.653,0-32.011-12.13-32.011-27.045v-2.836c0-14.893,14.32-27.009,31.942-27.045l107.593-7.716h3.967L311.972,463.1c17.622.029,31.942,12.152,31.942,27.045v2.836C343.914,507.885,329.555,520.022,311.9,520.022Z" fill="#7966e3"/><path d="M278.973,520.022H60.021c-17.653,0-32.011-12.13-32.011-27.045v-2.836c0-14.893,14.32-27.009,31.942-27.045l107.593-7.716h3.967L279.042,463.1c17.622.029,31.942,12.152,31.942,27.045v2.836C310.984,507.885,296.625,520.022,278.973,520.022ZM60.021,465.743c-15.928,0-28.887,10.945-28.887,24.405v2.836c0,13.453,12.959,24.405,28.887,24.405H278.973c15.928,0,28.887-10.945,28.887-24.405v-2.836c0-13.453-12.959-24.405-28.887-24.405h-.131l-107.523-7.716h-3.634L60.091,465.743Z" transform="translate(0 0)" fill="#614cd4"/><path d="M61.066,466.85c-16,0-29.016,11.107-29.016,24.768V494.5c0,13.654,13.017,24.768,29.016,24.768H281c16,0,29.016-11.107,29.016-24.768v-2.878c0-13.654-13.017-24.768-29.016-24.768h-.132l-108-7.831h-3.65L61.136,466.85Z" transform="translate(-1.823 -1.027)" fill="#311e69"/><ellipse cx="18.203" cy="17.979" rx="18.203" ry="17.979" transform="translate(58.187 474.111)" fill="#41288c"/><ellipse cx="18.203" cy="17.979" rx="18.203" ry="17.979" transform="translate(46.307 474.111)" fill="#614cd4"/><rect width="191.23" height="11.67" transform="translate(84.271 486.256)" fill="#41288c"/><path d="M271.99,486.026h62.795c4.982,0,9.022,3.277,9.022,7.319v12.184c0,4.042-4.039,7.319-9.022,7.319H271.99V486.02h0Z" transform="translate(-54.543 -7.343)" fill="#41288c"/><path d="M658.251,400.1l-10.081-10.42a8.358,8.358,0,0,0-7.764-2.639H622.338l1.579,29.863-6.181,15.445c-3.152,7.684-7.965,13.763-13.744,17.361l-1.491.954c-1.893,1.215-1.145,4.816.98,4.707l40.705-2.2c10.349-.557,19.218-9.487,21.936-22.069h0c2.456-11.381-.624-23.522-7.868-31Z" transform="translate(-177 -26.759)" fill="#614cd4"/><path d="M595.239,393.674l-15.482,38.682c-3.152,7.683-7.965,13.763-13.744,17.36l-1.491.954c-1.893,1.215-1.145,4.815.98,4.707l40.705-2.2c10.349-.557,19.218-9.486,21.936-22.067h0c2.456-11.381-.624-23.52-7.868-31L610.2,389.7c-4.85-5.011-12.134-3.066-14.956,3.984Z" transform="translate(-158 -26.759)" fill="#311e69"/><path d="M266.352,421.35l-1.258-42.71c-.926-31.38-4.969-59.87-11.2-78.89h0c-4.964-15.17-11.012-23.37-17.229-23.37H188.047c-9.749,0-12.739,19.95-12.739,62.88l-.058,84.11c.016.42.037.83.058,1.24h91.071c.016-1.07.011-2.16-.026-3.26Zm-63.62-49.34c0,4.53-2.621,7.7-5.122,6.19l-5.453-3.27c-3.322-1.99-5.543-7.35-5.543-13.36V307.36c0-6.09,2.9-11.03,6.464-11.03h3.19c3.569,0,6.464,4.94,6.464,11.03v64.65Zm51.434,33.07c-.016,4.38-2.506,7.49-4.953,6.19l-34.742-18.44c-2.469-1.31-4.185-5.14-4.28-9.55l-1.827-85.48c-.079-3.61,1.616-6.61,3.737-6.61h24.982c3.161-.12,6.118,2.961,7.764,8.09,8.685,28.96,9.391,84.36,9.317,105.8Z" transform="translate(-54.001 1)" fill="#a399ff"/><rect width="80.73" height="8.77" transform="translate(125.86 373.21)" fill="#a399ff"/><path d="M350.34,410.61s16.574-20.73,34.134-24.42,22.756-1.2,22.756-1.2,3.554,19.27,1.5,31.74-.6,17-12.305,16.1-39.977-3.85-39.977-3.85l-6.095-18.36Z" transform="translate(-136 1)" fill="#614cd4"/><path d="M125.25,13.07h0Z" transform="translate(226.31 497)" fill="#ffb03b"/></g></g></svg>